<?xml version="1.0" encoding="UTF-8" standalone="no"?>
<!-- Created with Inkscape (http://www.inkscape.org/) -->
<svg
   xmlns:dc="http://purl.org/dc/elements/1.1/"
   xmlns:cc="http://creativecommons.org/ns#"
   xmlns:rdf="http://www.w3.org/1999/02/22-rdf-syntax-ns#"
   xmlns:svg="http://www.w3.org/2000/svg"
   xmlns="http://www.w3.org/2000/svg"
   xmlns:sodipodi="http://sodipodi.sourceforge.net/DTD/sodipodi-0.dtd"
   xmlns:inkscape="http://www.inkscape.org/namespaces/inkscape"
   width="64"
   height="64"
   id="svg2403"
   sodipodi:version="0.32"
   inkscape:version="0.46"
   sodipodi:docname="dec_repeater_tower2.svg"
   inkscape:output_extension="org.inkscape.output.svg.inkscape"
   version="1.0"
   style="display:inline">
  <defs
     id="defs2405">
    <inkscape:perspective
       sodipodi:type="inkscape:persp3d"
       inkscape:vp_x="0 : 32 : 1"
       inkscape:vp_y="0 : 1000 : 0"
       inkscape:vp_z="64 : 32 : 1"
       inkscape:persp3d-origin="32 : 21.333333 : 1"
       id="perspective2411" />
    <inkscape:perspective
       id="perspective2420"
       inkscape:persp3d-origin="372.04724 : 350.78739 : 1"
       inkscape:vp_z="744.09448 : 526.18109 : 1"
       inkscape:vp_y="0 : 1000 : 0"
       inkscape:vp_x="0 : 526.18109 : 1"
       sodipodi:type="inkscape:persp3d" />
  </defs>
  <sodipodi:namedview
     id="base"
     pagecolor="#ffffff"
     bordercolor="#666666"
     borderopacity="1.0"
     inkscape:pageopacity="0.0"
     inkscape:pageshadow="2"
     inkscape:zoom="5.5"
     inkscape:cx="-23.272727"
     inkscape:cy="32"
     inkscape:current-layer="layer1"
     showgrid="true"
     inkscape:document-units="px"
     inkscape:grid-bbox="true"
     inkscape:window-width="1920"
     inkscape:window-height="1147"
     inkscape:window-x="0"
     inkscape:window-y="23" />
  <metadata
     id="metadata2408">
    <rdf:RDF>
      <cc:Work
         rdf:about="">
        <dc:format>image/svg+xml</dc:format>
        <dc:type
           rdf:resource="http://purl.org/dc/dcmitype/StillImage" />
      </cc:Work>
    </rdf:RDF>
  </metadata>
  <g
     id="layer1"
     inkscape:label="Layer 1"
     inkscape:groupmode="layer"
     style="display:inline">
    <path
       sodipodi:type="arc"
       style="opacity:1;fill:#ffffff;fill-opacity:1;fill-rule:nonzero;stroke:none;stroke-width:1.5;stroke-linecap:butt;stroke-linejoin:miter;stroke-miterlimit:4;stroke-dasharray:none;stroke-opacity:1"
       id="path2413"
       sodipodi:cx="-0.27272728"
       sodipodi:cy="51.18182"
       sodipodi:rx="32.454544"
       sodipodi:ry="27.90909"
       d="M 32.181817,51.18182 A 32.454544,27.90909 0 1 1 -32.727271,51.18182 A 32.454544,27.90909 0 1 1 32.181817,51.18182 z"
       transform="matrix(0.8935575,0,0,0.8420196,32.243698,-11.096096)" />
    <path
       id="path2415"
       d="M 22.270227,55.801959 C 15.126551,53.610459 7.9859877,48.834627 5.9582807,44.892018 C 0.80703571,34.87611 0.70511571,28.970618 5.5266807,19.884928 C 7.1536787,16.819037 9.4574597,14.53541 13.028795,12.448448 C 19.633212,8.5890573 25.703787,6.7746573 32.01202,6.7746573 C 41.411865,6.7746573 53.92488,12.46478 57.456218,18.345058 C 59.98614,22.557809 61.999999,28.612389 61.999999,32.005744 C 61.999999,35.399099 59.98614,41.453681 57.456218,45.666431 C 55.974098,48.134418 51.614857,51.549834 47.547469,53.429831 C 38.70537,57.516749 30.400517,58.296121 22.270227,55.801959 z M 42.281536,51.386287 C 53.802224,46.711453 59.568302,36.509337 56.445744,26.32506 C 54.957142,21.46995 51.008431,16.747488 46.079681,13.927758 C 44.434676,12.986652 42.888207,12.216657 42.643082,12.216657 C 42.397961,12.216657 42.722041,13.048212 43.363261,14.064557 C 44.004484,15.080902 44.529118,16.761662 44.529118,17.799579 C 44.529118,20.022695 43.112592,22.605928 41.89353,22.605928 C 40.851556,22.605928 40.815186,21.955634 41.736153,19.792 C 42.326528,18.40504 42.263202,17.709369 41.335562,15.390972 C 40.493572,13.286628 40.400778,12.549611 40.94206,12.265423 C 42.309636,11.547403 38.474909,10.611418 33.138319,10.360674 C 26.8959,10.067371 20.609959,11.228512 21.806992,12.453802 C 22.314156,12.972939 22.240527,13.516136 21.497554,14.736682 C 20.528872,16.328023 20.538632,19.741221 21.517585,21.740155 C 21.838265,22.394958 21.659804,22.605928 20.785209,22.605928 C 18.155242,22.605928 17.258276,17.046827 19.392436,13.974007 C 20.063729,13.007464 20.388573,12.216657 20.11431,12.216657 C 19.840049,12.216657 18.057807,13.190902 16.153768,14.381646 C 12.264444,16.813949 8.5181107,21.179308 6.8721237,25.196948 C 5.3355047,28.947635 5.4841927,35.314423 7.1954807,39.043123 C 10.052568,45.268378 16.193888,50.323715 23.329422,52.324049 C 26.042582,53.084662 27.994375,53.252737 32.590683,53.121637 C 37.702895,52.975809 38.88673,52.763812 42.281536,51.386287 z M 21.234611,49.529962 C 21.234611,48.293024 23.428908,37.957223 25.62883,28.831833 C 27.337517,21.744128 27.542881,20.220336 26.970627,18.875934 C 25.834019,16.205706 26.420325,15.783482 31.140089,15.873305 C 35.88473,15.963602 36.760167,16.552193 35.711822,18.947063 C 35.048107,20.463258 34.976327,20.062206 39.554338,40.416108 C 40.686553,45.449953 41.613902,49.735527 41.615109,49.939602 C 41.619087,50.611546 39.44567,50.326209 38.693228,49.555996 C 38.287746,49.140946 36.442185,47.687278 34.591992,46.325634 L 31.227997,43.849903 L 26.959261,47.076412 C 22.635888,50.344218 21.234611,50.944799 21.234611,49.529962 z M 27.049828,44.324756 L 29.661529,42.296674 L 28.036229,41.109027 C 27.142315,40.45582 26.194589,39.92138 25.930173,39.92138 C 25.665756,39.92138 25.144398,40.978859 24.771591,42.271333 C 24.398781,43.563806 23.956918,45.010884 23.789665,45.487059 C 23.31304,46.844043 24.223617,46.519406 27.049828,44.324756 z M 38.475195,45.487059 C 38.305362,45.010884 37.917881,43.65779 37.614119,42.480174 C 37.310367,41.302564 36.899592,40.201234 36.701292,40.032777 C 36.502991,39.864317 35.637198,40.324168 34.777298,41.054663 L 33.213853,42.382835 L 35.495496,44.367834 C 37.939358,46.493953 38.972756,46.882115 38.475195,45.487059 z M 33.419542,39.13531 C 34.405017,38.430871 35.211316,37.6082 35.211316,37.307155 C 35.211316,36.449674 32.186862,33.984653 31.134779,33.984653 C 30.082692,33.984653 27.05824,36.449674 27.05824,37.307155 C 27.05824,37.908569 30.346182,40.416108 31.134779,40.416108 C 31.405926,40.416108 32.434075,39.83975 33.419542,39.13531 z M 28.805326,31.697803 C 28.805326,31.32297 28.412232,31.01629 27.931783,31.01629 C 27.377368,31.01629 27.05824,31.490263 27.05824,32.313685 C 27.05824,33.410831 27.193068,33.51602 27.931783,32.995198 C 28.412232,32.656464 28.805326,32.072637 28.805326,31.697803 z M 35.353849,32.253107 C 35.062784,30.959612 34.378682,30.654299 33.739645,31.532688 C 33.355908,32.060152 34.424071,33.489926 35.201863,33.489926 C 35.438531,33.489926 35.506921,32.933357 35.353849,32.253107 z M 32.9816,29.208068 C 34.201894,28.269902 34.328396,26.468453 33.395096,23.31973 C 32.820164,21.380077 32.553702,21.121746 31.127947,21.121746 C 29.269114,21.121746 28.951465,21.623183 28.432074,25.377392 C 28.129239,27.566299 28.254115,28.24662 29.10543,29.045754 C 30.379371,30.241611 31.57227,30.291563 32.9816,29.208068 z M 22.948128,19.737462 C 22.410927,18.214263 22.456014,17.511646 23.186215,16.027008 C 24.194978,13.976015 26.401443,13.308955 25.562201,15.308701 C 25.305262,15.920926 25.099322,17.590631 25.104552,19.019155 C 25.116053,22.15976 23.94052,22.55133 22.948128,19.737462 z M 37.876086,19.212209 C 38.113641,17.69087 37.99427,16.399605 37.55101,15.696006 C 36.59844,14.183955 37.608587,13.38729 38.918853,14.617243 C 40.431962,16.037609 40.788398,18.881111 39.639979,20.370073 C 38.118976,22.342092 37.455363,21.906479 37.876086,19.212209 z"
       style="fill:#ff0000" />
  </g>
</svg>
