<?xml version="1.0" encoding="UTF-8" standalone="no"?>
<!-- Created with Inkscape (http://www.inkscape.org/) -->

<svg
   xmlns:dc="http://purl.org/dc/elements/1.1/"
   xmlns:cc="http://creativecommons.org/ns#"
   xmlns:rdf="http://www.w3.org/1999/02/22-rdf-syntax-ns#"
   xmlns:svg="http://www.w3.org/2000/svg"
   xmlns="http://www.w3.org/2000/svg"
   xmlns:xlink="http://www.w3.org/1999/xlink"
   xmlns:sodipodi="http://sodipodi.sourceforge.net/DTD/sodipodi-0.dtd"
   xmlns:inkscape="http://www.inkscape.org/namespaces/inkscape"
   width="24"
   height="24"
   viewBox="0 0 24 24"
   id="svg2"
   version="1.1"
   inkscape:version="0.91 r13725"
   sodipodi:docname="4_wheel_drive_passenger.svg">
  <defs
     id="defs4">
    <inkscape:perspective
       id="perspective10"
       inkscape:persp3d-origin="372.04724 : 350.78739 : 1"
       inkscape:vp_z="744.09448 : 526.18109 : 1"
       inkscape:vp_y="0 : 1000 : 0"
       inkscape:vp_x="0 : 526.18109 : 1"
       sodipodi:type="inkscape:persp3d" />
    <inkscape:perspective
       sodipodi:type="inkscape:persp3d"
       inkscape:vp_x="0 : 526.18109 : 1"
       inkscape:vp_y="0 : 1000 : 0"
       inkscape:vp_z="744.09448 : 526.18109 : 1"
       inkscape:persp3d-origin="372.04724 : 350.78739 : 1"
       id="perspective2390" />
    <inkscape:perspective
       sodipodi:type="inkscape:persp3d"
       inkscape:vp_x="0 : 526.18109 : 1"
       inkscape:vp_y="0 : 1000 : 0"
       inkscape:vp_z="744.09448 : 526.18109 : 1"
       inkscape:persp3d-origin="372.04724 : 350.78739 : 1"
       id="perspective2403" />
    <inkscape:perspective
       id="perspective2437"
       inkscape:persp3d-origin="32 : 21.333333 : 1"
       inkscape:vp_z="64 : 32 : 1"
       inkscape:vp_y="0 : 1000 : 0"
       inkscape:vp_x="0 : 32 : 1"
       sodipodi:type="inkscape:persp3d" />
    <inkscape:perspective
       id="perspective11498"
       inkscape:persp3d-origin="32 : 21.333333 : 1"
       inkscape:vp_z="64 : 32 : 1"
       inkscape:vp_y="0 : 1000 : 0"
       inkscape:vp_x="0 : 32 : 1"
       sodipodi:type="inkscape:persp3d" />
    <inkscape:perspective
       id="perspective48"
       inkscape:persp3d-origin="382.5 : 125 : 1"
       inkscape:vp_z="765 : 187.5 : 1"
       inkscape:vp_y="0 : 1000 : 0"
       inkscape:vp_x="0 : 187.5 : 1"
       sodipodi:type="inkscape:persp3d" />
    <linearGradient
       id="linearGradient9619">
      <stop
         id="stop9621"
         offset="0"
         style="stop-color: rgb(187, 187, 187); stop-opacity: 1;" />
      <stop
         id="stop9623"
         offset="1"
         style="stop-color: rgb(255, 255, 255); stop-opacity: 1;" />
    </linearGradient>
    <linearGradient
       id="linearGradient5196"
       inkscape:collect="always">
      <stop
         id="stop5198"
         offset="0"
         style="stop-color: rgb(201, 201, 201); stop-opacity: 1;" />
      <stop
         id="stop5200"
         offset="1"
         style="stop-color: rgb(201, 201, 201); stop-opacity: 0;" />
    </linearGradient>
    <linearGradient
       gradientUnits="userSpaceOnUse"
       y2="430.10822"
       x2="-774.98901"
       y1="619.61285"
       x1="-776.40326"
       id="linearGradient5202"
       xlink:href="#linearGradient5196"
       inkscape:collect="always" />
    <linearGradient
       gradientUnits="userSpaceOnUse"
       y2="295.75793"
       x2="-490.02499"
       y1="350.91223"
       x1="-1027.219"
       id="linearGradient9625"
       xlink:href="#linearGradient9619"
       inkscape:collect="always" />
    <linearGradient
       gradientTransform="matrix(0.467111,0,0,0.487697,583.26,486.273)"
       y2="430.10822"
       x2="-774.98901"
       y1="619.61285"
       x1="-776.40326"
       gradientUnits="userSpaceOnUse"
       id="linearGradient6733"
       xlink:href="#linearGradient5196"
       inkscape:collect="always" />
    <linearGradient
       gradientTransform="matrix(0.467111,0,0,0.487697,583.26,486.273)"
       y2="295.75793"
       x2="-490.02499"
       y1="350.91223"
       x1="-1027.219"
       gradientUnits="userSpaceOnUse"
       id="linearGradient6736"
       xlink:href="#linearGradient9619"
       inkscape:collect="always" />
    <linearGradient
       y2="430.10822"
       x2="-774.98901"
       y1="619.61285"
       x1="-776.40326"
       gradientTransform="matrix(0.441304,0,0,0.460753,417.87471,619.10371)"
       gradientUnits="userSpaceOnUse"
       id="linearGradient1360"
       xlink:href="#linearGradient5196"
       inkscape:collect="always" />
    <linearGradient
       y2="295.75793"
       x2="-490.02499"
       y1="350.91223"
       x1="-1027.219"
       gradientTransform="matrix(0.441304,0,0,0.460753,417.87471,619.10371)"
       gradientUnits="userSpaceOnUse"
       id="linearGradient1363"
       xlink:href="#linearGradient9619"
       inkscape:collect="always" />
    <inkscape:perspective
       sodipodi:type="inkscape:persp3d"
       inkscape:vp_x="0 : 526.18109 : 1"
       inkscape:vp_y="0 : 1000 : 0"
       inkscape:vp_z="744.09448 : 526.18109 : 1"
       inkscape:persp3d-origin="372.04724 : 350.78739 : 1"
       id="perspective10-7" />
    <inkscape:perspective
       id="perspective2390-6"
       inkscape:persp3d-origin="372.04724 : 350.78739 : 1"
       inkscape:vp_z="744.09448 : 526.18109 : 1"
       inkscape:vp_y="0 : 1000 : 0"
       inkscape:vp_x="0 : 526.18109 : 1"
       sodipodi:type="inkscape:persp3d" />
    <inkscape:perspective
       id="perspective2403-5"
       inkscape:persp3d-origin="372.04724 : 350.78739 : 1"
       inkscape:vp_z="744.09448 : 526.18109 : 1"
       inkscape:vp_y="0 : 1000 : 0"
       inkscape:vp_x="0 : 526.18109 : 1"
       sodipodi:type="inkscape:persp3d" />
    <inkscape:perspective
       sodipodi:type="inkscape:persp3d"
       inkscape:vp_x="0 : 32 : 1"
       inkscape:vp_y="0 : 1000 : 0"
       inkscape:vp_z="64 : 32 : 1"
       inkscape:persp3d-origin="32 : 21.333333 : 1"
       id="perspective2437-4" />
    <inkscape:perspective
       sodipodi:type="inkscape:persp3d"
       inkscape:vp_x="0 : 32 : 1"
       inkscape:vp_y="0 : 1000 : 0"
       inkscape:vp_z="64 : 32 : 1"
       inkscape:persp3d-origin="32 : 21.333333 : 1"
       id="perspective4043" />
    <inkscape:perspective
       sodipodi:type="inkscape:persp3d"
       inkscape:vp_x="0 : 32 : 1"
       inkscape:vp_y="0 : 1000 : 0"
       inkscape:vp_z="64 : 32 : 1"
       inkscape:persp3d-origin="32 : 21.333333 : 1"
       id="perspective2429" />
    <inkscape:perspective
       sodipodi:type="inkscape:persp3d"
       inkscape:vp_x="0 : 32 : 1"
       inkscape:vp_y="0 : 1000 : 0"
       inkscape:vp_z="64 : 32 : 1"
       inkscape:persp3d-origin="32 : 21.333333 : 1"
       id="perspective12440" />
    <inkscape:perspective
       id="perspective9"
       inkscape:persp3d-origin="372.04724 : 350.78739 : 1"
       inkscape:vp_z="744.09448 : 526.18109 : 1"
       inkscape:vp_y="0 : 1000 : 0"
       inkscape:vp_x="0 : 526.18109 : 1"
       sodipodi:type="inkscape:persp3d" />
  </defs>
  <sodipodi:namedview
     id="base"
     pagecolor="#ffffff"
     bordercolor="#666666"
     borderopacity="1.0"
     inkscape:pageopacity="0.0"
     inkscape:pageshadow="2"
     inkscape:zoom="8"
     inkscape:cx="6.8719093"
     inkscape:cy="-13.868475"
     inkscape:document-units="px"
     inkscape:current-layer="layer3"
     showgrid="true"
     units="px"
     inkscape:window-width="1288"
     inkscape:window-height="883"
     inkscape:window-x="528"
     inkscape:window-y="86"
     inkscape:window-maximized="0">
    <inkscape:grid
       type="xygrid"
       id="grid4136" />
  </sodipodi:namedview>
  <metadata
     id="metadata7">
    <rdf:RDF>
      <cc:Work
         rdf:about="">
        <dc:format>image/svg+xml</dc:format>
        <dc:type
           rdf:resource="http://purl.org/dc/dcmitype/StillImage" />
        <dc:title></dc:title>
      </cc:Work>
    </rdf:RDF>
  </metadata>
  <g
     inkscape:label="Layer 1"
     inkscape:groupmode="layer"
     id="layer1"
     transform="translate(0,-1028.3622)" />
  <g
     inkscape:groupmode="layer"
     id="layer3"
     inkscape:label="Layer 2">
    <path
       style="opacity:1;fill:#7c3100;fill-opacity:1;stroke:none;stroke-width:1;stroke-miterlimit:4;stroke-dasharray:none;stroke-opacity:1"
       d="m 11,6 a 1.0001,1.0001 0 0 0 -1,1 l 0,1 a 1.0001,1.0001 0 0 0 0.121094,0.4746094 L 8.109375,10.595703 3.4140625,11.003906 a 1.0001,1.0001 0 0 0 -0.6210937,0.289063 l -1.5,1.5 A 1.0001,1.0001 0 0 0 1,13.5 L 1,15 a 1.0001,1.0001 0 0 0 1,1 l 1.0507812,0 A 1.0001,1.0001 0 0 0 3.203125,15.986328 C 3.4573992,17.095291 4.3198752,18 5.5,18 6.6794793,18 7.541921,17.096344 7.796875,15.988281 A 1.0001,1.0001 0 0 0 7.9453125,16 L 10,16 l 5,0 0.05078,0 a 1.0001,1.0001 0 0 0 0.152344,-0.01367 C 15.457399,17.095291 16.319875,18 17.5,18 c 1.179479,0 2.041921,-0.903656 2.296875,-2.011719 a 1.0001,1.0001 0 0 0 0.148437,0.01172 l 1.056641,0 a 1.0001,1.0001 0 0 0 0.707031,-0.292969 l 0.998047,-1 A 1.0001,1.0001 0 0 0 23,14 l 0,-2 a 1.0001,1.0001 0 0 0 -0.105469,-0.447266 l -1.5,-2.9999996 A 1.0001,1.0001 0 0 0 20.992188,8.1289062 1.0001,1.0001 0 0 0 21,8 L 21,7 A 1.0001,1.0001 0 0 0 20,6 l -7,0 -1,0 -1,0 z"
       id="path4623"
       inkscape:connector-curvature="0" />
    <g
       id="layer2"
       inkscape:label="circle"
       transform="translate(-138.27429,111.29371)" />
    <path
       id="path8734"
       d="m -53.631265,807.17739 25.275955,-52.77983 9.98557,-12.38044 25.27598,-4.23542 50.2399,-2.93222 65.53031,1.30321 42.75072,5.53863 8.11328,3.25801 20.59524,36.81555 13.73016,30.62533 -39.00614,-7.16762 -16.85065,-1.30321 -19.65909,-1.30321 -25.27597,-1.3032 -31.51696,-0.3258 -32.76516,0.9774 -28.70852,0.6516 -24.02777,2.28061 -42.750717,7.16763"
       style="display:none;fill:url(#linearGradient1363);fill-opacity:1;fill-rule:evenodd;stroke:#000000;stroke-width:0.45092401px;stroke-linecap:butt;stroke-linejoin:miter;stroke-opacity:1"
       inkscape:connector-curvature="0" />
    <path
       id="path5172"
       d="m -14.62514,827.70287 14.97835,65.81188 3.74459,7.81923 7.48918,3.25802 27.46031,0 37.44589,0.6516 64.90621,-1.30321 4.99279,-1.9548 4.99279,-4.56122 2.49639,-11.72885 12.48196,-59.29585 -23.09163,-0.6516 -6.24098,23.45769 -5.61688,11.07726 -112.33768,-1.30321 -4.99279,-14.98687 -4.36868,-18.24487 -24.33982,1.9548 z"
       style="display:none;fill:url(#linearGradient1360);fill-opacity:1;fill-rule:evenodd;stroke:#000000;stroke-width:0.45092401px;stroke-linecap:butt;stroke-linejoin:miter;stroke-opacity:1"
       inkscape:connector-curvature="0" />
    <path
       id="path2441"
       d=""
       style="fill:#000000;fill-opacity:1;stroke:#000000;stroke-width:0.4194079;stroke-opacity:1"
       inkscape:connector-curvature="0" />
    <path
       id="path2469"
       d=""
       style="fill:#000000;fill-opacity:1;stroke:#000000;stroke-width:0.4194079;stroke-opacity:1"
       inkscape:connector-curvature="0" />
    <path
       id="path2494"
       d=""
       style="fill:#000000;fill-opacity:1;stroke:#000000;stroke-width:0.4194079;stroke-opacity:1"
       inkscape:connector-curvature="0" />
    <path
       style="opacity:1;fill:#ff6600;fill-opacity:1;stroke:none;stroke-width:1;stroke-miterlimit:4;stroke-dasharray:none;stroke-opacity:1"
       d="m 11,7 0,1 1,0 0,1 L 11,9 8.5742188,11.558594 3.5,12 2,13.5 2,15 3.0507812,15 C 3.2883573,13.836122 4.312122,13.000129 5.5,13 c 1.18641,0.002 2.2080325,0.837558 2.4453125,2 L 10,15 l 5,0 0.05078,0 c 0.237576,-1.163878 1.261341,-1.999871 2.449219,-2 1.18641,0.002 2.208033,0.837558 2.445312,2 l 1.056641,0 0.998047,-1 0,-2 -1.5,-3 -1.5,0 0,-1 1,0 0,-1 -7,0 -1,0 -1,0 z m 2,1 5,0 0,1 -2,0 -3,0 0,-1 z m -1.5,2 2.5,0 0,2 -4.5,0 2,-2 z m 3.5,0 4.8125,0 1.0625,2 L 15,12 15,10 Z M 5.5,14 C 4.671573,14 4,14.671573 4,15.5 4,16.328427 4.671573,17 5.5,17 6.328427,17 7,16.328427 7,15.5 7,14.671573 6.328427,14 5.5,14 Z m 12,0 C 16.671573,14 16,14.671573 16,15.5 16,16.328427 16.671573,17 17.5,17 18.328427,17 19,16.328427 19,15.5 19,14.671573 18.328427,14 17.5,14 Z"
       id="path4215-9"
       inkscape:connector-curvature="0" />
  </g>
</svg>
