<?xml version="1.0" encoding="UTF-8" standalone="no"?>
<!-- Created with Inkscape (http://www.inkscape.org/) -->

<svg
   xmlns:dc="http://purl.org/dc/elements/1.1/"
   xmlns:cc="http://creativecommons.org/ns#"
   xmlns:rdf="http://www.w3.org/1999/02/22-rdf-syntax-ns#"
   xmlns:svg="http://www.w3.org/2000/svg"
   xmlns="http://www.w3.org/2000/svg"
   xmlns:sodipodi="http://sodipodi.sourceforge.net/DTD/sodipodi-0.dtd"
   xmlns:inkscape="http://www.inkscape.org/namespaces/inkscape"
   width="24"
   height="24"
   viewBox="0 0 24 24"
   id="svg2"
   version="1.1"
   inkscape:version="0.91 r13725"
   sodipodi:docname="comms_bus.svg">
  <defs
     id="defs4">
    <inkscape:perspective
       id="perspective10"
       inkscape:persp3d-origin="372.04724 : 350.78739 : 1"
       inkscape:vp_z="744.09448 : 526.18109 : 1"
       inkscape:vp_y="0 : 1000 : 0"
       inkscape:vp_x="0 : 526.18109 : 1"
       sodipodi:type="inkscape:persp3d" />
    <inkscape:perspective
       sodipodi:type="inkscape:persp3d"
       inkscape:vp_x="0 : 526.18109 : 1"
       inkscape:vp_y="0 : 1000 : 0"
       inkscape:vp_z="744.09448 : 526.18109 : 1"
       inkscape:persp3d-origin="372.04724 : 350.78739 : 1"
       id="perspective2390" />
    <inkscape:perspective
       sodipodi:type="inkscape:persp3d"
       inkscape:vp_x="0 : 526.18109 : 1"
       inkscape:vp_y="0 : 1000 : 0"
       inkscape:vp_z="744.09448 : 526.18109 : 1"
       inkscape:persp3d-origin="372.04724 : 350.78739 : 1"
       id="perspective2403" />
    <inkscape:perspective
       id="perspective2437"
       inkscape:persp3d-origin="32 : 21.333333 : 1"
       inkscape:vp_z="64 : 32 : 1"
       inkscape:vp_y="0 : 1000 : 0"
       inkscape:vp_x="0 : 32 : 1"
       sodipodi:type="inkscape:persp3d" />
  </defs>
  <sodipodi:namedview
     id="base"
     pagecolor="#ffffff"
     bordercolor="#666666"
     borderopacity="1.0"
     inkscape:pageopacity="0.0"
     inkscape:pageshadow="2"
     inkscape:zoom="16"
     inkscape:cx="7.5769874"
     inkscape:cy="6.3292272"
     inkscape:document-units="px"
     inkscape:current-layer="layer3"
     showgrid="true"
     units="px"
     inkscape:window-width="1858"
     inkscape:window-height="1153"
     inkscape:window-x="62"
     inkscape:window-y="25"
     inkscape:window-maximized="1">
    <inkscape:grid
       type="xygrid"
       id="grid4136" />
  </sodipodi:namedview>
  <metadata
     id="metadata7">
    <rdf:RDF>
      <cc:Work
         rdf:about="">
        <dc:format>image/svg+xml</dc:format>
        <dc:type
           rdf:resource="http://purl.org/dc/dcmitype/StillImage" />
        <dc:title></dc:title>
      </cc:Work>
    </rdf:RDF>
  </metadata>
  <g
     inkscape:label="Layer 1"
     inkscape:groupmode="layer"
     id="layer1"
     transform="translate(0,-1028.3622)" />
  <g
     inkscape:groupmode="layer"
     id="layer3"
     inkscape:label="Layer 2">
    <path
       style="fill:#7c3100;fill-opacity:1;stroke:none;stroke-width:1;stroke-miterlimit:4;stroke-dasharray:none;stroke-opacity:1"
       d="M 3,6 C 2.734801,6.0000511 2.4804805,6.1054325 2.2929688,6.2929688 l -1,1 C 1.183009,7.4026097 1.1000903,7.5363494 1.0507812,7.6835938 L 0.05078125,10.683594 C 0.01695704,10.785647 -1.9011617e-4,10.892487 0,11 l 0,4 c 5.5217905e-5,0.552262 0.44773812,0.999945 1,1 l 1.0527344,0 C 2.2338882,15.999235 2.4114324,15.94928 2.5664062,15.855469 3.0204576,16.504496 3.6572229,17 4.5,17 5.3421316,17 5.9794334,16.505615 6.4335938,15.857422 6.5881953,15.950212 6.7650056,15.999472 6.9453125,16 l 9.1074215,0 c 0.181154,-7.65e-4 0.358698,-0.05072 0.513672,-0.144531 C 17.020457,16.504496 17.657223,17 18.5,17 c 0.842132,0 1.479433,-0.494385 1.933594,-1.142578 0.154601,0.09279 0.331411,0.14205 0.511718,0.142578 L 23,16 c 0.552262,-5.5e-5 0.999945,-0.447738 1,-1 L 24,7 C 23.999945,6.4477381 23.552262,6.0000552 23,6 Z"
       id="path4363"
       inkscape:connector-curvature="0"
       sodipodi:nodetypes="ccccccccccsccccsccccccc" />
    <path
       style="fill:#ff6600;fill-opacity:1;stroke:none;stroke-width:1;stroke-miterlimit:4;stroke-dasharray:none;stroke-opacity:1"
       d="m 3.000008,7 -1,1 -1,3 0,4 1.0527349,0 c -0.034335,-0.164471 -0.052003,-0.331985 -0.052735,-0.5 0,-1.380712 1.1192881,-2.5 2.5,-2.5 1.3807119,0 2.5,1.119288 2.5,2.5 -0.00137,0.168081 -0.019696,0.335596 -0.054687,0.5 l 9.1074221,0 c -0.03434,-0.164471 -0.05201,-0.331985 -0.05274,-0.5 0,-1.380712 1.119288,-2.5 2.5,-2.5 1.380712,0 2.5,1.119288 2.5,2.5 -0.0014,0.168081 -0.0197,0.335596 -0.05469,0.5 L 23,15 23,7 Z m -10e-8,1 L 7,8 7,11 2,11 Z m 5,0 2.0000001,0 0,6 -2.0000001,0 z M 11,8 l 11,0 0,3 -11,0 z m -6.4999921,5 c -0.8284271,0 -1.5,0.671573 -1.5,1.5 0,0.828427 0.6715729,1.5 1.5,1.5 0.8284271,0 1.5,-0.671573 1.5,-1.5 0,-0.828427 -0.6715729,-1.5 -1.5,-1.5 z m 14.0000001,0 c -0.828427,0 -1.5,0.671573 -1.5,1.5 0,0.828427 0.671573,1.5 1.5,1.5 0.828427,0 1.5,-0.671573 1.5,-1.5 0,-0.828427 -0.671573,-1.5 -1.5,-1.5 z"
       id="rect4203-0"
       inkscape:connector-curvature="0"
       sodipodi:nodetypes="ccccccsccccsccccccccccccccccccccssssssssss" />
  </g>
</svg>
