<?xml version="1.0" encoding="UTF-8" standalone="no"?>
<!-- Created with Inkscape (http://www.inkscape.org/) -->

<svg
   xmlns:dc="http://purl.org/dc/elements/1.1/"
   xmlns:cc="http://creativecommons.org/ns#"
   xmlns:rdf="http://www.w3.org/1999/02/22-rdf-syntax-ns#"
   xmlns:svg="http://www.w3.org/2000/svg"
   xmlns="http://www.w3.org/2000/svg"
   xmlns:sodipodi="http://sodipodi.sourceforge.net/DTD/sodipodi-0.dtd"
   xmlns:inkscape="http://www.inkscape.org/namespaces/inkscape"
   width="24"
   height="24"
   viewBox="0 0 24 24"
   id="svg2"
   version="1.1"
   inkscape:version="0.91 r13725"
   sodipodi:docname="fixed_wing_aircraft.svg">
  <defs
     id="defs4">
    <inkscape:perspective
       id="perspective10"
       inkscape:persp3d-origin="372.04724 : 350.78739 : 1"
       inkscape:vp_z="744.09448 : 526.18109 : 1"
       inkscape:vp_y="0 : 1000 : 0"
       inkscape:vp_x="0 : 526.18109 : 1"
       sodipodi:type="inkscape:persp3d" />
    <inkscape:perspective
       sodipodi:type="inkscape:persp3d"
       inkscape:vp_x="0 : 526.18109 : 1"
       inkscape:vp_y="0 : 1000 : 0"
       inkscape:vp_z="744.09448 : 526.18109 : 1"
       inkscape:persp3d-origin="372.04724 : 350.78739 : 1"
       id="perspective2390" />
    <inkscape:perspective
       sodipodi:type="inkscape:persp3d"
       inkscape:vp_x="0 : 526.18109 : 1"
       inkscape:vp_y="0 : 1000 : 0"
       inkscape:vp_z="744.09448 : 526.18109 : 1"
       inkscape:persp3d-origin="372.04724 : 350.78739 : 1"
       id="perspective2403" />
    <inkscape:perspective
       id="perspective2437"
       inkscape:persp3d-origin="32 : 21.333333 : 1"
       inkscape:vp_z="64 : 32 : 1"
       inkscape:vp_y="0 : 1000 : 0"
       inkscape:vp_x="0 : 32 : 1"
       sodipodi:type="inkscape:persp3d" />
    <inkscape:perspective
       id="perspective4043"
       inkscape:persp3d-origin="32 : 21.333333 : 1"
       inkscape:vp_z="64 : 32 : 1"
       inkscape:vp_y="0 : 1000 : 0"
       inkscape:vp_x="0 : 32 : 1"
       sodipodi:type="inkscape:persp3d" />
    <inkscape:perspective
       id="perspective2429"
       inkscape:persp3d-origin="32 : 21.333333 : 1"
       inkscape:vp_z="64 : 32 : 1"
       inkscape:vp_y="0 : 1000 : 0"
       inkscape:vp_x="0 : 32 : 1"
       sodipodi:type="inkscape:persp3d" />
    <inkscape:perspective
       id="perspective12440"
       inkscape:persp3d-origin="32 : 21.333333 : 1"
       inkscape:vp_z="64 : 32 : 1"
       inkscape:vp_y="0 : 1000 : 0"
       inkscape:vp_x="0 : 32 : 1"
       sodipodi:type="inkscape:persp3d" />
  </defs>
  <sodipodi:namedview
     id="base"
     pagecolor="#ffffff"
     bordercolor="#666666"
     borderopacity="1.0"
     inkscape:pageopacity="0.0"
     inkscape:pageshadow="2"
     inkscape:zoom="5.6568543"
     inkscape:cx="17.342224"
     inkscape:cy="9.1380908"
     inkscape:document-units="px"
     inkscape:current-layer="layer3"
     showgrid="true"
     units="px"
     inkscape:window-width="1858"
     inkscape:window-height="1153"
     inkscape:window-x="62"
     inkscape:window-y="25"
     inkscape:window-maximized="1">
    <inkscape:grid
       type="xygrid"
       id="grid4136" />
  </sodipodi:namedview>
  <metadata
     id="metadata7">
    <rdf:RDF>
      <cc:Work
         rdf:about="">
        <dc:format>image/svg+xml</dc:format>
        <dc:type
           rdf:resource="http://purl.org/dc/dcmitype/StillImage" />
        <dc:title></dc:title>
      </cc:Work>
    </rdf:RDF>
  </metadata>
  <g
     inkscape:label="Layer 1"
     inkscape:groupmode="layer"
     id="layer1"
     transform="translate(0,-1028.3622)" />
  <g
     inkscape:groupmode="layer"
     id="layer3"
     inkscape:label="Layer 2">
    <path
       sodipodi:type="inkscape:offset"
       inkscape:radius="1"
       inkscape:original="M 13.5 1 C 13.1875 1 12.904889 1.2433943 12.78125 1.5625 L 9.5 10 L 5 10 C 1.5954054 10.188683 1.4454868 10.628446 1 11.5 C 1.4454868 12.371554 1.5954054 12.811317 5 13 L 9.5 13 L 12.78125 21.4375 C 12.904889 21.756606 13.1875 22 13.5 22 L 15 22 L 13.5 13 L 19.5 13 L 21.5 16 L 23 15.5 C 23 15.5 22.043557 12.826826 22.15625 12.40625 C 22.268943 11.985674 23 11.5 23 11.5 C 23 11.5 22.268943 11.014326 22.15625 10.59375 C 22.043557 10.173174 23 7.5 23 7.5 L 21.5 7 L 19.5 10 L 13.5 10 L 15 1 L 13.5 1 z "
       style="opacity:1;fill:#7c3100;fill-opacity:1;stroke:none;stroke-width:1;stroke-miterlimit:4;stroke-dasharray:none;stroke-opacity:1"
       id="path4787"
       d="M 13.5,0 C 12.668259,0 12.096828,0.56311467 11.849609,1.2011719 L 8.8164062,9 5,9 a 1.0001,1.0001 0 0 0 -0.054687,0.00195 C 3.2009667,9.098625 2.2322968,9.2300792 1.4667969,9.5878906 0.70129695,9.9457021 0.32178655,10.629358 0.109375,11.044922 a 1.0001,1.0001 0 0 0 0,0.910156 c 0.21241155,0.415564 0.59192195,1.09922 1.3574219,1.457031 0.7654999,0.357812 1.7341698,0.489266 3.4785156,0.585938 A 1.0001,1.0001 0 0 0 5,14 l 3.8164062,0 3.0332028,7.800781 C 12.097135,22.438236 12.668896,23 13.5,23 l 1.5,0 a 1.0001,1.0001 0 0 0 0.986328,-1.164062 L 14.679688,14 l 4.285156,0 1.703125,2.554688 a 1.0001,1.0001 0 0 0 1.148437,0.394531 l 1.5,-0.5 a 1.0001,1.0001 0 0 0 0.625,-1.285157 c 0,0 -0.233806,-0.655229 -0.451172,-1.351562 -0.108683,-0.348166 -0.212949,-0.706355 -0.277343,-0.976562 -0.02145,-0.09002 -0.02974,-0.145314 -0.04102,-0.207032 0.01281,0.0017 0.0143,0.0018 0.111328,-0.08398 0.139694,-0.123472 0.269531,-0.212891 0.269531,-0.212891 a 1.0001,1.0001 0 0 0 0,-1.664062 c 0,0 -0.129837,-0.08942 -0.269531,-0.212891 -0.09702,-0.08576 -0.09852,-0.08573 -0.111328,-0.08398 0.01128,-0.06172 0.01956,-0.117017 0.04102,-0.207032 0.06439,-0.2702073 0.16866,-0.6283956 0.277343,-0.976562 0.217366,-0.6963328 0.451172,-1.3515625 0.451172,-1.3515625 a 1.0001,1.0001 0 0 0 -0.625,-1.2851563 l -1.5,-0.5 A 1.0001,1.0001 0 0 0 20.667969,6.4453125 L 18.964844,9 14.679688,9 15.986328,1.1640625 A 1.0001,1.0001 0 0 0 15,0 l -1.5,0 z" />
    <path
       style="opacity:1;fill:#ff6600;fill-opacity:1;stroke:none;stroke-width:1;stroke-miterlimit:4;stroke-dasharray:none;stroke-opacity:1"
       d="m 13.5,0.99999815 c -0.3125,0 -0.595111,0.24339435 -0.71875,0.56250005 L 9.5,9.9999997 l -4.5,0 C 1.5954054,10.188683 1.4454868,10.628446 1,11.5 1.4454868,12.371554 1.5954054,12.811317 5,13 l 4.5,0 3.28125,8.4375 C 12.904889,21.756606 13.1875,22 13.5,22 l 1.5,0 -1.5,-9 6,0 2,3 1.5,-0.5 c 0,0 -0.956443,-2.673174 -0.84375,-3.09375 C 22.268943,11.985674 23,11.5 23,11.5 23,11.5 22.268943,11.014326 22.15625,10.59375 22.043557,10.173174 23,7.4999982 23,7.4999982 l -1.5,-0.5 -2,3.0000015 -6,0 1.5,-9.00000155 -1.5,0 z"
       id="rect4714"
       inkscape:connector-curvature="0" />
  </g>
</svg>
