<?xml version="1.0" encoding="UTF-8" standalone="no"?>
<!-- Created with Inkscape (http://www.inkscape.org/) -->

<svg
   xmlns:dc="http://purl.org/dc/elements/1.1/"
   xmlns:cc="http://creativecommons.org/ns#"
   xmlns:rdf="http://www.w3.org/1999/02/22-rdf-syntax-ns#"
   xmlns:svg="http://www.w3.org/2000/svg"
   xmlns="http://www.w3.org/2000/svg"
   xmlns:sodipodi="http://sodipodi.sourceforge.net/DTD/sodipodi-0.dtd"
   xmlns:inkscape="http://www.inkscape.org/namespaces/inkscape"
   width="24"
   height="24"
   viewBox="0 0 24 24"
   id="svg2"
   version="1.1"
   inkscape:version="0.91 r13725"
   sodipodi:docname="rotary_aircraft.svg">
  <defs
     id="defs4">
    <inkscape:perspective
       id="perspective10"
       inkscape:persp3d-origin="372.04724 : 350.78739 : 1"
       inkscape:vp_z="744.09448 : 526.18109 : 1"
       inkscape:vp_y="0 : 1000 : 0"
       inkscape:vp_x="0 : 526.18109 : 1"
       sodipodi:type="inkscape:persp3d" />
    <inkscape:perspective
       sodipodi:type="inkscape:persp3d"
       inkscape:vp_x="0 : 526.18109 : 1"
       inkscape:vp_y="0 : 1000 : 0"
       inkscape:vp_z="744.09448 : 526.18109 : 1"
       inkscape:persp3d-origin="372.04724 : 350.78739 : 1"
       id="perspective2390" />
    <inkscape:perspective
       sodipodi:type="inkscape:persp3d"
       inkscape:vp_x="0 : 526.18109 : 1"
       inkscape:vp_y="0 : 1000 : 0"
       inkscape:vp_z="744.09448 : 526.18109 : 1"
       inkscape:persp3d-origin="372.04724 : 350.78739 : 1"
       id="perspective2403" />
    <inkscape:perspective
       id="perspective2437"
       inkscape:persp3d-origin="32 : 21.333333 : 1"
       inkscape:vp_z="64 : 32 : 1"
       inkscape:vp_y="0 : 1000 : 0"
       inkscape:vp_x="0 : 32 : 1"
       sodipodi:type="inkscape:persp3d" />
    <inkscape:perspective
       id="perspective4043"
       inkscape:persp3d-origin="32 : 21.333333 : 1"
       inkscape:vp_z="64 : 32 : 1"
       inkscape:vp_y="0 : 1000 : 0"
       inkscape:vp_x="0 : 32 : 1"
       sodipodi:type="inkscape:persp3d" />
    <inkscape:perspective
       id="perspective2429"
       inkscape:persp3d-origin="32 : 21.333333 : 1"
       inkscape:vp_z="64 : 32 : 1"
       inkscape:vp_y="0 : 1000 : 0"
       inkscape:vp_x="0 : 32 : 1"
       sodipodi:type="inkscape:persp3d" />
    <inkscape:perspective
       id="perspective12440"
       inkscape:persp3d-origin="32 : 21.333333 : 1"
       inkscape:vp_z="64 : 32 : 1"
       inkscape:vp_y="0 : 1000 : 0"
       inkscape:vp_x="0 : 32 : 1"
       sodipodi:type="inkscape:persp3d" />
    <inkscape:perspective
       id="perspective4043-9"
       inkscape:persp3d-origin="32 : 21.333333 : 1"
       inkscape:vp_z="64 : 32 : 1"
       inkscape:vp_y="0 : 1000 : 0"
       inkscape:vp_x="0 : 32 : 1"
       sodipodi:type="inkscape:persp3d" />
  </defs>
  <sodipodi:namedview
     id="base"
     pagecolor="#ffffff"
     bordercolor="#666666"
     borderopacity="1.0"
     inkscape:pageopacity="0.0"
     inkscape:pageshadow="2"
     inkscape:zoom="8"
     inkscape:cx="4.0408467"
     inkscape:cy="9.7492821"
     inkscape:document-units="px"
     inkscape:current-layer="layer3"
     showgrid="true"
     units="px"
     inkscape:window-width="1858"
     inkscape:window-height="1153"
     inkscape:window-x="62"
     inkscape:window-y="25"
     inkscape:window-maximized="1">
    <inkscape:grid
       type="xygrid"
       id="grid4136" />
  </sodipodi:namedview>
  <metadata
     id="metadata7">
    <rdf:RDF>
      <cc:Work
         rdf:about="">
        <dc:format>image/svg+xml</dc:format>
        <dc:type
           rdf:resource="http://purl.org/dc/dcmitype/StillImage" />
        <dc:title></dc:title>
      </cc:Work>
    </rdf:RDF>
  </metadata>
  <g
     inkscape:label="Layer 1"
     inkscape:groupmode="layer"
     id="layer1"
     transform="translate(0,-1028.3622)" />
  <g
     inkscape:groupmode="layer"
     id="layer3"
     inkscape:label="Layer 2">
    <path
       style="opacity:1;fill:#7c3100;fill-opacity:1;stroke:none;stroke-width:1;stroke-miterlimit:4;stroke-dasharray:none;stroke-opacity:1"
       d="M 1,5.0019121 A 0.99837499,0.99837499 0 0 0 0.0019531,5.999959 l 0,1 A 0.99837499,0.99837499 0 0 0 1,7.9980059 l 6.0019531,0 0,0.6835937 C 6.7725732,8.6033288 6.5910775,8.5799683 6.3359375,8.4862871 5.6666619,8.2405453 4.8868255,7.9690789 3.9765625,8.0058184 1.7914056,8.0192648 0.0019531,9.811835 0.0019531,11.999959 c 0,2.196362 1.8016846,3.998047 3.9980469,3.998047 l 0.00195,0 0,0.0039 -1.0019531,0 c -1.0917924,0 -1.9980469,0.906254 -1.9980469,1.998047 0,1.091793 0.9062545,1.998047 1.9980469,1.998047 l 9.0000001,0 c 1.091792,0 1.998047,-0.906255 1.998047,-1.998047 0,-1.091792 -0.906255,-1.998047 -1.998047,-1.998047 l -1.001953,0 0,-1.501953 c 0,-0.293818 0.05638,-0.361591 0.09766,-0.412109 0.03825,-0.04682 0.115022,-0.09395 0.228516,-0.138672 l 7.917969,-1.980469 a 0.99837499,0.99837499 0 0 0 0.355468,-0.169922 l 1.25,-0.9375 c 1.256472,-0.373179 2.149513,-1.530147 2.15039,-2.861322 0,-1.644078 -1.35397,-2.9980469 -2.998047,-2.9980469 -1.644077,0 -2.998047,1.3539689 -2.998047,2.9980469 2.24e-4,0.3101389 0.137225,0.5849943 0.228516,0.8730469 L 11.808594,9.415975 A 0.99837499,0.99837499 0 0 0 11,9.001912 l -1.001953,0 0,-1.0039061 6.001953,0 A 0.99837499,0.99837499 0 0 0 16.998047,6.999959 l 0,-1 A 0.99837499,0.99837499 0 0 0 16,5.0019121 l -7,0 A 0.99837499,0.99837499 0 0 0 8.5,5.1366778 0.99837499,0.99837499 0 0 0 8,5.0019121 l -7,0 z m 5.9980469,10.9960939 1.0039062,0 0,0.0039 -1.0039062,0 0,-0.0039 z"
       id="path4963"
       inkscape:connector-curvature="0" />
    <path
       style="opacity:1;fill:#ff6600;fill-opacity:1;stroke:none;stroke-width:1;stroke-miterlimit:4;stroke-dasharray:none;stroke-opacity:1"
       d="m 1,5.999959 0,1 7,0 0,-1 z m 7,1 0,3 c -1.390079,-0.138868 -2.6338704,-1.0642614 -4,-1 -1.6568542,0 -3,1.343146 -3,3 0,1.656854 1.3431458,3 3,3 l 1,0 0,2 -2,0 c -0.5522847,0 -1,0.447715 -1,1 0,0.552285 0.4477153,1 1,1 l 9,0 c 0.552285,0 1,-0.447715 1,-1 0,-0.552285 -0.447715,-1 -1,-1 l -2,0 0,-2.5 c 0,-0.956164 0.529474,-1.328127 1,-1.5 l 8,-2 1.386719,-1.039062 C 21.323677,9.776243 21.999371,8.9549389 22,7.999959 c 0,-1.1045695 -0.895431,-2 -2,-2 -1.104569,0 -2,0.8954305 -2,2 5.03e-4,0.6961898 0.362999,1.342026 0.957031,1.705078 L 11,10.499959 l 0,-0.5 -2,0 0,-3 z m 1,0 7,0 0,-1 -7,0 z m -3,8 3,0 0,2 -3,0 z"
       id="rect4842"
       inkscape:connector-curvature="0"
       sodipodi:nodetypes="ccccccccscccssssssccccccsccccccccccccccccc" />
  </g>
</svg>
