<?xml version="1.0" encoding="UTF-8" standalone="no"?>
<!-- Created with Inkscape (http://www.inkscape.org/) -->
<svg
   xmlns:dc="http://purl.org/dc/elements/1.1/"
   xmlns:cc="http://creativecommons.org/ns#"
   xmlns:rdf="http://www.w3.org/1999/02/22-rdf-syntax-ns#"
   xmlns:svg="http://www.w3.org/2000/svg"
   xmlns="http://www.w3.org/2000/svg"
   xmlns:sodipodi="http://sodipodi.sourceforge.net/DTD/sodipodi-0.dtd"
   xmlns:inkscape="http://www.inkscape.org/namespaces/inkscape"
   width="64px"
   height="64px"
   id="svg3264"
   sodipodi:version="0.32"
   inkscape:version="0.46"
   sodipodi:docname="Ford.svg"
   inkscape:output_extension="org.inkscape.output.svg.inkscape">
  <defs
     id="defs3266">
    <inkscape:perspective
       sodipodi:type="inkscape:persp3d"
       inkscape:vp_x="0 : 32 : 1"
       inkscape:vp_y="0 : 1000 : 0"
       inkscape:vp_z="64 : 32 : 1"
       inkscape:persp3d-origin="32 : 21.333333 : 1"
       id="perspective3272" />
  </defs>
  <sodipodi:namedview
     id="base"
     pagecolor="#ffffff"
     bordercolor="#666666"
     borderopacity="1.0"
     inkscape:pageopacity="0.0"
     inkscape:pageshadow="2"
     inkscape:zoom="5.5"
     inkscape:cx="9.0909091"
     inkscape:cy="32"
     inkscape:current-layer="layer1"
     showgrid="true"
     inkscape:document-units="px"
     inkscape:grid-bbox="true"
     inkscape:window-width="1920"
     inkscape:window-height="1147"
     inkscape:window-x="-4"
     inkscape:window-y="-4" />
  <metadata
     id="metadata3269">
    <rdf:RDF>
      <cc:Work
         rdf:about="">
        <dc:format>image/svg+xml</dc:format>
        <dc:type
           rdf:resource="http://purl.org/dc/dcmitype/StillImage" />
      </cc:Work>
    </rdf:RDF>
  </metadata>
  <g
     id="layer1"
     inkscape:label="Layer 1"
     inkscape:groupmode="layer">
    <g
       id="g3229"
       transform="matrix(0.7642775,0,0,0.8152866,-40.606364,-32.407641)">
      <path
         style="fill:#e6e6e6;fill-opacity:1"
         d="M 69.464567,117.71097 C 69.464567,117.33297 71.543757,110.45329 74.08499,102.42279 C 78.514659,88.42467 78.628193,87.770025 76.83499,86.566039 C 75.806257,85.875331 70.051877,81.69666 64.047478,77.280103 L 53.13039,69.25 L 69.047478,69.23804 L 84.964567,69.22608 L 89.786349,54.109822 C 92.438328,45.795879 94.985272,39.388761 95.446223,39.871782 C 95.907173,40.354802 98.263534,47.05 100.68258,54.75 L 105.08085,68.75 L 121.52271,69.25 C 130.56573,69.525 137.16846,70.076679 136.19545,70.475954 C 135.22243,70.875228 129.37243,74.896933 123.19545,79.413076 C 117.01846,83.929219 111.84057,87.701536 111.68902,87.796002 C 111.53747,87.890468 113.62228,94.781263 116.32193,103.10888 C 119.02158,111.4365 121.02419,118.25 120.77217,118.25 C 120.52016,118.25 114.67487,114.15825 107.78265,109.15721 L 95.251326,100.06443 L 90.107946,103.67982 C 87.279088,105.66829 81.477067,109.79339 77.214567,112.84673 C 72.952067,115.90006 69.464567,118.08897 69.464567,117.71097 z"
         id="path2446" />
      <path
         style="fill:#d4d4d4;fill-opacity:1"
         d="M 69.464567,117.71097 C 69.464567,117.33297 71.543757,110.45329 74.08499,102.42279 C 78.514659,88.42467 78.628193,87.770025 76.83499,86.566039 C 75.806257,85.875331 70.051877,81.69666 64.047478,77.280103 L 53.13039,69.25 L 69.047478,69.23804 L 84.964567,69.22608 L 89.786349,54.109822 C 92.438328,45.795879 94.985272,39.388761 95.446223,39.871782 C 95.907173,40.354802 98.263534,47.05 100.68258,54.75 L 105.08085,68.75 L 121.52271,69.25 C 130.56573,69.525 137.16846,70.076679 136.19545,70.475954 C 135.22243,70.875228 129.37243,74.896933 123.19545,79.413076 C 117.01846,83.929219 111.84057,87.701536 111.68902,87.796002 C 111.53747,87.890468 113.62228,94.781263 116.32193,103.10888 C 119.02158,111.4365 121.02419,118.25 120.77217,118.25 C 120.52016,118.25 114.67487,114.15825 107.78265,109.15721 L 95.251326,100.06443 L 90.107946,103.67982 C 87.279088,105.66829 81.477067,109.79339 77.214567,112.84673 C 72.952067,115.90006 69.464567,118.08897 69.464567,117.71097 z"
         id="path2444" />
      <path
         style="fill:#c2c2c2;fill-opacity:1"
         d="M 69.464567,117.77304 C 69.464567,117.41703 71.52068,110.83454 74.033706,103.14529 C 76.546732,95.456038 78.459232,88.737912 78.283706,88.216119 C 78.10818,87.694326 72.395448,83.213488 65.588747,78.258702 L 53.212927,69.25 L 69.114553,69.25 L 85.016179,69.25 L 89.834887,54.677847 C 92.485176,46.663163 94.948563,40.3945 95.30908,40.747485 C 95.669598,41.10047 98.02645,47.545439 100.54653,55.069638 L 105.12849,68.75 L 121.54653,69.287698 C 130.57645,69.583433 137.45415,69.920933 136.83031,70.037698 C 135.99815,70.193455 114.2117,85.5475 111.62222,87.803146 C 111.43393,87.967162 113.51443,94.884802 116.24554,103.17568 C 118.97665,111.46656 121.04012,118.25 120.83101,118.25 C 120.62191,118.25 114.8806,114.2 108.07254,109.25 C 101.26448,104.3 95.413222,100.25 95.069742,100.25 C 94.726262,100.25 91.187083,102.63173 87.2049,105.54274 C 72.089822,116.59197 69.464567,118.40184 69.464567,117.77304 z"
         id="path2442" />
      <path
         style="fill:#ffff00;fill-opacity:1"
         d="M 69.781736,116.86585 C 71.325334,112.8433 78.464567,89.568975 78.464567,88.559305 C 78.464567,87.941936 72.775776,83.344782 65.822808,78.343408 L 53.18105,69.25 L 69.157633,69.25 L 85.134216,69.25 L 89.853894,54.724668 C 92.449717,46.735735 94.922192,40.414794 95.348282,40.678132 C 95.774373,40.94147 98.086136,47.47787 100.48553,55.203465 L 104.84808,69.25 L 120.84334,69.25 L 136.83859,69.25 L 124.40158,78.380911 C 117.56122,83.402912 111.79334,87.661644 111.58406,87.844759 C 111.37477,88.027874 113.26311,94.593127 115.78036,102.43421 C 118.29761,110.27529 120.18974,116.85817 119.98509,117.06282 C 119.78043,117.26747 114.25498,113.56831 107.70629,108.84246 C 101.1576,104.1166 95.465322,100.25 95.056776,100.25 C 94.648229,100.25 88.652436,104.35803 81.73279,109.37896 C 74.813144,114.39989 69.43517,117.76899 69.781736,116.86585 z"
         id="path2440" />
      <path
         style="fill:#9e9e9e;fill-opacity:1"
         d="M 69.781736,116.86585 C 71.325334,112.8433 78.464567,89.568975 78.464567,88.559305 C 78.464567,87.941936 72.775776,83.344782 65.822808,78.343408 L 53.18105,69.25 L 69.157633,69.25 L 85.134216,69.25 L 89.853894,54.724668 C 92.449717,46.735735 94.922192,40.414794 95.348282,40.678132 C 95.774373,40.94147 98.086136,47.47787 100.48553,55.203465 L 104.84808,69.25 L 120.84334,69.25 L 136.83859,69.25 L 124.40158,78.380911 C 117.56122,83.402912 111.79334,87.661644 111.58406,87.844759 C 111.37477,88.027874 113.26311,94.593127 115.78036,102.43421 C 118.29761,110.27529 120.18974,116.85817 119.98509,117.06282 C 119.78043,117.26747 114.25498,113.56831 107.70629,108.84246 C 101.1576,104.1166 95.465322,100.25 95.056776,100.25 C 94.648229,100.25 88.652436,104.35803 81.73279,109.37896 C 74.813144,114.39989 69.43517,117.76899 69.781736,116.86585 z M 88.671867,97.403534 C 91.810882,95.11909 94.758345,93.25 95.221785,93.25 C 95.685224,93.25 98.894863,95.309576 102.35432,97.826835 C 105.81377,100.34409 108.82784,102.22006 109.05225,101.99565 C 109.27666,101.77125 108.33623,98.282853 106.96242,94.243668 C 105.5886,90.204483 104.46457,86.595523 104.46457,86.223757 C 104.46457,85.851991 107.86441,83.11831 112.01977,80.14891 L 119.57498,74.75 L 110.09012,74.464637 L 100.60526,74.179273 L 97.869495,65.964637 L 95.133734,57.75 L 92.466877,65.75 L 89.80002,73.75 L 79.974811,74.038111 L 70.149602,74.326223 L 78.249327,80.271393 L 86.349052,86.216564 L 83.437415,94.830326 C 81.836015,99.567895 81.074506,103.01951 81.745173,102.50058 C 82.41584,101.98165 85.532852,99.687978 88.671867,97.403534 z"
         id="path2438" />
      <path
         style="fill:#8c8c8c;fill-opacity:1"
         d="M 71.020299,113.40338 C 71.785098,110.84402 73.97482,104.11771 75.886348,98.456016 L 79.361853,88.162032 L 68.16321,79.886502 C 62.003956,75.33496 56.064567,71.093437 54.964567,70.460894 C 53.394886,69.558267 56.442978,69.304275 69.131234,69.280409 L 85.2979,69.25 L 90.221244,54.5 L 95.144587,39.75 L 100.02877,54.5 L 104.91296,69.25 L 120.81928,69.25 L 136.72561,69.25 L 124.34509,78.28531 C 117.5358,83.254731 111.85475,87.867231 111.72052,88.53531 C 111.58629,89.20339 113.45282,95.825 115.86837,103.25 C 118.28393,110.675 120.12023,116.89852 119.94906,117.08004 C 119.77788,117.26156 114.62987,113.75266 108.50904,109.28248 C 102.38821,104.8123 96.734935,100.90724 95.946205,100.60458 C 95.114623,100.28547 89.285389,103.83586 82.070954,109.05552 L 69.629756,118.05675 L 71.020299,113.40338 z M 89.935304,96.877692 L 95.466107,93.005384 L 102.48658,98.127692 C 106.34784,100.94496 109.67491,103.25 109.88007,103.25 C 110.08523,103.25 108.98873,99.318323 107.4434,94.51294 L 104.63372,85.77588 L 112.24588,80.26294 L 119.85803,74.75 L 110.35639,74.466141 L 100.85475,74.182282 L 98.004631,65.466141 L 95.154513,56.75 L 92.23799,65.464651 L 89.321466,74.179302 L 79.745612,74.464651 L 70.169758,74.75 L 77.817163,80.214878 C 82.023235,83.220561 85.464567,86.179242 85.464567,86.789725 C 85.464567,87.400209 84.339567,91.207332 82.964567,95.25 C 79.962871,104.07535 79.981782,103.83018 82.434533,102.12197 C 83.518015,101.36739 86.893362,99.007461 89.935304,96.877692 z"
         id="path2436" />
      <path
         style="fill:#7a7a7a;fill-opacity:1"
         d="M 70.464567,116.07705 C 70.464567,115.30137 72.465095,108.70216 74.910186,101.41214 L 79.355804,88.157556 L 68.160186,79.884264 C 62.002595,75.333953 56.064567,71.093437 54.964567,70.460894 C 53.394886,69.558267 56.442978,69.304275 69.131234,69.280409 L 85.2979,69.25 L 90.221244,54.5 L 95.144587,39.75 L 100.02877,54.5 L 104.91296,69.25 L 120.81928,69.25 L 136.72561,69.25 L 124.34509,78.28531 C 117.5358,83.254731 111.85475,87.867231 111.72052,88.53531 C 111.58629,89.20339 113.45282,95.825 115.86837,103.25 C 118.28393,110.675 120.12023,116.89852 119.94906,117.08004 C 119.77788,117.26156 114.62987,113.75266 108.50904,109.28248 C 102.38821,104.8123 96.740048,100.90921 95.957568,100.60894 C 94.736387,100.14033 86.889633,105.23968 73.714567,115.06395 C 71.396413,116.79253 70.464567,117.08301 70.464567,116.07705 z M 89.464567,97.265031 C 91.389567,95.791352 93.538865,94.251253 94.240785,93.842587 C 95.02702,93.384833 98.210356,95.096223 102.53214,98.300093 C 106.39047,101.16039 109.74935,103.29855 109.99634,103.05156 C 110.24332,102.80458 109.17643,98.825981 107.62547,94.210235 L 104.80554,85.81797 L 112.38505,80.283985 L 119.96457,74.75 L 110.54542,74.25 L 101.12627,73.75 L 98.54542,66.069994 C 97.125951,61.845991 95.715459,58.146883 95.410993,57.849754 C 95.106528,57.552625 93.621335,61.105106 92.110564,65.744156 L 89.363709,74.178793 L 79.68077,74.464396 L 69.997831,74.75 L 76.92786,79.75 C 80.739376,82.5 84.258486,85.025719 84.748104,85.36271 C 85.237723,85.6997 84.474225,89.66043 83.051443,94.164331 C 81.628661,98.668233 80.464567,102.60677 80.464567,102.91663 C 80.464567,103.58655 84.595643,100.99242 89.464567,97.265031 z"
         id="path2434" />
      <path
         style="fill:#686868;fill-opacity:1"
         d="M 70.464567,116.07705 C 70.464567,115.30137 72.465095,108.70216 74.910186,101.41214 L 79.355804,88.157556 L 68.160186,79.884264 C 62.002595,75.333953 56.064567,71.093437 54.964567,70.460894 C 53.394886,69.558267 56.442978,69.304275 69.131234,69.280409 L 85.2979,69.25 L 90.221244,54.5 L 95.144587,39.75 L 100.02877,54.5 L 104.91296,69.25 L 120.81928,69.25 L 136.72561,69.25 L 124.34509,78.28531 C 117.5358,83.254731 111.85475,87.867231 111.72052,88.53531 C 111.58629,89.20339 113.45282,95.825 115.86837,103.25 C 118.28393,110.675 120.12023,116.89852 119.94906,117.08004 C 119.77788,117.26156 114.62987,113.75266 108.50904,109.28248 C 102.38821,104.8123 96.740048,100.90921 95.957568,100.60894 C 94.736387,100.14033 86.889633,105.23968 73.714567,115.06395 C 71.396413,116.79253 70.464567,117.08301 70.464567,116.07705 z M 89.464567,97.265031 C 91.389567,95.791352 93.538865,94.251253 94.240785,93.842587 C 95.02702,93.384833 98.210356,95.096223 102.53214,98.300093 C 106.39047,101.16039 109.74935,103.29855 109.99634,103.05156 C 110.24332,102.80458 109.17643,98.825981 107.62547,94.210235 L 104.80554,85.81797 L 112.38505,80.283985 L 119.96457,74.75 L 110.54542,74.25 L 101.12627,73.75 L 98.54542,66.069994 C 97.125951,61.845991 95.715459,58.146883 95.410993,57.849754 C 95.106528,57.552625 93.621335,61.105106 92.110564,65.744156 L 89.363709,74.178793 L 79.68077,74.464396 L 69.997831,74.75 L 76.92786,79.75 C 80.739376,82.5 84.258486,85.025719 84.748104,85.36271 C 85.237723,85.6997 84.474225,89.66043 83.051443,94.164331 C 81.628661,98.668233 80.464567,102.60677 80.464567,102.91663 C 80.464567,103.58655 84.595643,100.99242 89.464567,97.265031 z"
         id="path2432" />
      <path
         style="fill:#575757;fill-opacity:1"
         d="M 70.481882,116.61869 C 70.491405,116.14091 72.501025,109.47212 74.947704,101.79916 C 77.394383,94.126191 79.299092,87.780744 79.180389,87.698161 C 79.061687,87.615579 73.883098,83.859556 67.672413,79.351445 C 61.461728,74.843333 55.611728,70.838781 54.672413,70.452439 C 53.733098,70.066098 60.304493,69.525 69.275515,69.25 L 85.586462,68.75 L 90.117258,54.891743 C 92.609195,47.269702 95.01348,41.419702 95.460112,41.891743 C 95.906744,42.363784 98.134811,48.7125 100.41137,56 L 104.55057,69.25 L 120.61244,69.25 L 136.67431,69.25 L 124.06944,78.409248 C 116.92256,83.602481 111.47606,88.257302 111.49109,89.159248 C 111.50568,90.034162 113.49443,96.740499 115.91053,104.06222 L 120.30344,117.37444 L 117.634,115.63087 C 116.16582,114.67191 110.74319,110.81891 105.58372,107.06865 C 100.42426,103.31839 95.750626,100.25 95.197876,100.25 C 94.299043,100.25 82.320329,108.4853 73.714567,115.01965 C 71.927067,116.3769 70.472359,117.09647 70.481882,116.61869 z M 88.738059,97.935997 L 95.397931,93.121995 L 102.93125,98.693147 C 107.07458,101.75728 110.46457,103.8899 110.46457,103.4323 C 110.46457,102.9747 109.33957,99.292668 107.96457,95.25 C 106.58957,91.207332 105.46457,87.334429 105.46457,86.643548 C 105.46457,85.952668 108.87309,82.898186 113.03906,79.855811 L 120.61355,74.324221 L 110.87012,74.03711 L 101.12669,73.75 L 98.119583,64.75 L 95.112477,55.75 L 92.088991,64.966195 L 89.065506,74.182389 L 79.525745,74.466195 L 69.985984,74.75 L 77.475275,80.145469 C 81.594386,83.112978 85.126011,85.674422 85.323332,85.837567 C 85.520652,86.000713 84.313197,90.215798 82.640099,95.204423 C 80.880437,100.45115 80.120833,103.9533 80.838143,103.51233 C 81.520167,103.09305 85.075129,100.5837 88.738059,97.935997 z"
         id="path2430" />
      <path
         style="fill:#454545;fill-opacity:1"
         d="M 70.464567,116.51796 C 70.464567,116.09688 72.536303,109.53607 75.068424,101.93837 C 77.600545,94.340678 79.513045,87.985005 79.318424,87.814658 C 76.779174,85.592113 54.934541,70.194121 54.098827,70.037698 C 53.474984,69.920933 60.352684,69.583433 69.382605,69.287698 L 85.800642,68.75 L 90.466355,54.75 L 95.132067,40.75 L 99.881241,55 L 104.63042,69.25 L 120.79749,69.280409 C 133.51598,69.304331 136.53957,69.557177 134.97217,70.465754 C 133.87635,71.10097 127.95269,75.340401 121.80848,79.886712 L 110.6372,88.152734 L 115.10958,101.80934 C 117.56938,109.32048 119.37093,115.67697 119.11301,115.93489 C 118.85509,116.19281 113.34188,112.56116 106.86143,107.86455 C 99.807668,102.75245 94.654528,99.653336 94.02168,100.14269 C 86.536305,105.93073 70.464567,117.10269 70.464567,116.51796 z M 88.655474,98.043538 L 95.346382,93.148299 L 102.85225,98.69915 C 106.98048,101.75212 110.57854,104.25 110.84793,104.25 C 111.11733,104.25 110.01157,100.32664 108.39069,95.531424 C 106.7698,90.736207 105.56083,86.482835 105.7041,86.079486 C 105.84736,85.676137 109.30615,82.849497 113.39031,79.798062 L 120.81605,74.25 L 111.22243,74.25 L 101.62881,74.25 L 98.922512,66 C 97.434047,61.4625 95.908038,57.408446 95.53138,56.990991 C 95.154722,56.573535 93.555701,60.271175 91.978,65.207968 L 89.109451,74.183954 L 79.334918,74.466977 L 69.560385,74.75 L 77.465367,80.25 C 83.950195,84.761908 85.259115,86.109306 84.751188,87.75 C 84.410649,88.85 83.11477,93.018711 81.871457,97.013802 C 80.502163,101.4137 80.07488,104.01367 80.787727,103.60819 C 81.434989,103.24001 84.975475,100.73592 88.655474,98.043538 z"
         id="path2428" />
      <path
         style="fill:#000000;fill-opacity:1;stroke:#000000;stroke-width:1.10000002;stroke-miterlimit:4;stroke-dasharray:none;stroke-opacity:1"
         d="M 70.464567,116.51796 C 70.464567,116.09688 72.536303,109.53607 75.068424,101.93837 C 77.600545,94.340678 79.513045,87.985005 79.318424,87.814658 C 76.779174,85.592113 54.934541,70.194121 54.098827,70.037698 C 53.474984,69.920933 60.352684,69.583433 69.382605,69.287698 L 85.800642,68.75 L 90.466355,54.75 L 95.132067,40.75 L 99.881241,55 L 104.63042,69.25 L 120.79749,69.280409 C 133.51598,69.304331 136.53957,69.557177 134.97217,70.465754 C 133.87635,71.10097 127.95269,75.340401 121.80848,79.886712 L 110.6372,88.152734 L 115.10958,101.80934 C 117.56938,109.32048 119.37093,115.67697 119.11301,115.93489 C 118.85509,116.19281 113.34188,112.56116 106.86143,107.86455 C 99.807668,102.75245 94.654528,99.653336 94.02168,100.14269 C 86.536305,105.93073 70.464567,117.10269 70.464567,116.51796 z M 88.655474,98.043538 L 95.346382,93.148299 L 102.85225,98.69915 C 106.98048,101.75212 110.57854,104.25 110.84793,104.25 C 111.11733,104.25 110.01157,100.32664 108.39069,95.531424 C 106.7698,90.736207 105.56083,86.482835 105.7041,86.079486 C 105.84736,85.676137 109.30615,82.849497 113.39031,79.798062 L 120.81605,74.25 L 111.22243,74.25 L 101.62881,74.25 L 98.922512,66 C 97.434047,61.4625 95.908038,57.408446 95.53138,56.990991 C 95.154722,56.573535 93.555701,60.271175 91.978,65.207968 L 89.109451,74.183954 L 79.334918,74.466977 L 69.560385,74.75 L 77.465367,80.25 C 83.950195,84.761908 85.259115,86.109306 84.751188,87.75 C 84.410649,88.85 83.11477,93.018711 81.871457,97.013802 C 80.502163,101.4137 80.07488,104.01367 80.787727,103.60819 C 81.434989,103.24001 84.975475,100.73592 88.655474,98.043538 z"
         id="path2426" />
    </g>
  </g>
</svg>
