<?xml version="1.0" encoding="UTF-8" standalone="no"?>
<!-- Created with Inkscape (http://www.inkscape.org/) -->

<svg
   xmlns:dc="http://purl.org/dc/elements/1.1/"
   xmlns:cc="http://creativecommons.org/ns#"
   xmlns:rdf="http://www.w3.org/1999/02/22-rdf-syntax-ns#"
   xmlns:svg="http://www.w3.org/2000/svg"
   xmlns="http://www.w3.org/2000/svg"
   xmlns:sodipodi="http://sodipodi.sourceforge.net/DTD/sodipodi-0.dtd"
   xmlns:inkscape="http://www.inkscape.org/namespaces/inkscape"
   id="svg3013"
   height="64px"
   width="64px"
   version="1.1"
   inkscape:version="0.48.4 r9939"
   sodipodi:docname="Fire_Advice.svg">
  <defs
     id="defs3855" />
  <sodipodi:namedview
     pagecolor="#ffffff"
     bordercolor="#666666"
     borderopacity="1"
     objecttolerance="10"
     gridtolerance="10"
     guidetolerance="10"
     inkscape:pageopacity="0"
     inkscape:pageshadow="2"
     inkscape:window-width="1920"
     inkscape:window-height="1138"
     id="namedview3853"
     showgrid="false"
     inkscape:zoom="3.6875"
     inkscape:cx="33.084746"
     inkscape:cy="32"
     inkscape:window-x="0"
     inkscape:window-y="25"
     inkscape:window-maximized="1"
     inkscape:current-layer="layer1" />
  <metadata
     id="metadata3018">
    <rdf:RDF>
      <cc:Work
         rdf:about="">
        <dc:format>image/svg+xml</dc:format>
        <dc:type
           rdf:resource="http://purl.org/dc/dcmitype/StillImage" />
        <dc:title />
      </cc:Work>
    </rdf:RDF>
  </metadata>
  <g
     id="layer1">
    <path
       id="path2995-4"
       d="M16,47.9c-10.8-10.8-13-13.5-13-16,0-2.51,2.16-5.17,12.9-15.9,10.8-10.8,13.5-12.9,16-12.9,2.55,0,5.15,2.12,16.1,13.1,10.3,10.3,13,13.6,13,15.8,0,2.18-2.72,5.49-13,15.8-10.9,10.9-13.5,13.1-16,13.1-2.51,0-5.18-2.17-16-13zm29.8-1.97c7.28-7.26,11.9-12.7,11.9-13.9,0-2.66-23.1-25.9-25.7-25.9-2.21,0-24.6,21.6-25.5,24.6-0.489,1.54,2.08,4.68,11.9,14.5,6.88,6.89,13.2,12.5,14,12.5,0.836,0,6.88-5.35,13.4-11.9zm-21.2,0.5c-7-7.1-8.4-9.5-8.4-13.6l0.004-2.85,1.94,3.18c3.78,6.21,6.32,5.78,3.75-0.628-0.906-2.26-1.62-5.36-1.58-6.88l0.0642-2.77,0.999,2.5c1.2,3,2.73,4.09,4.7,3.34,1.09-0.419,1.29-1.61,0.813-4.82-0.492-3.28-0.254-4.58,1.03-5.65,0.919-0.763,2.06-2.31,2.54-3.45,0.549-1.3,0.646-0.092,0.263,3.26-0.564,4.93-0.451,5.32,1.53,5.32,1.46,0,2.35-0.838,2.8-2.63,0.405-1.62,0.938-2.18,1.38-1.46,0.397,0.643,0.244,2.96-0.342,5.16-1.4,5.23,0.258,7.35,3.47,4.44l2.14-1.94-0.688,3.67c-0.403,2.15-0.265,3.93,0.334,4.3,1.09,0.673,4.23-1.93,4.23-3.51,0-0.517,0.403-0.941,0.895-0.941,1.75,0,1.91,4.02,0.266,6.83-1.51,2.59-14.4,15.5-15.5,15.5-0.247,0-3.23-2.85-6.64-6.33z"
       fill="#00F"
       style="fill:#000000;fill-opacity:1" />
    <path
       id="path3052"
       d="M31.4,57.2c-2.4-1.7-8-7-14.6-13.7-6.91-6.9-8.98-9.3-9.91-11.1-0.56-1.1-0.56-1.3,0.01-2.2,2-3.2,14.8-16,21.6-21.5,2.1-1.75,3-2.3,3.5-2.3,1.62-0.00283,12.2,9.83,20.5,19,3.18,3.52,4.98,5.95,4.98,6.72,0,0.208-0.307,0.842-0.682,1.41-2.41,3.65-13.8,15.4-20.7,21.3-3.61,3.11-3.72,3.16-4.73,2.43zm3.43-7.34c5.14-4.76,11.1-11.1,12-12.8,1.65-3.02,1.21-7.15-0.71-6.67-0.315,0.079-0.491,0.316-0.653,0.879-0.325,1.12-1.11,2.19-2.1,2.85-1.56,1.03-2.11,0.984-2.43-0.202-0.24-0.89-0.146-2.05,0.398-4.93,0.204-1.08,0.335-2,0.291-2.05-0.0438-0.0438-0.72,0.492-1.5,1.19-1.54,1.38-2.81,2.09-3.39,1.91-1.14-0.361-1.34-2.31-0.609-5.76,0.472-2.22,0.589-4.45,0.265-5.06-0.426-0.797-0.999-0.233-1.55,1.53-0.481,1.53-1.22,2.31-2.29,2.43-2.1,0.237-2.28-0.181-1.89-4.37,0.32-3.36,0.351-4.42,0.135-4.56-0.0818-0.0505-0.442,0.419-0.801,1.04-0.359,0.624-1.23,1.77-1.94,2.55-1.53,1.68-1.59,1.9-1.37,4.92,0.0855,1.21,0.159,2.83,0.163,3.6,0.0065,1.29-0.0335,1.45-0.484,1.9-0.646,0.646-2.04,0.714-2.81,0.137-0.815-0.603-1.6-1.75-2.21-3.22-1.11-2.67-1.02-2.64-1.08-0.312-0.064,2.46,0.274,4.19,1.53,7.83,0.816,2.37,1.13,4.08,0.83,4.52-0.28,0.412-1.02,0.0951-1.95-0.843-0.833-0.832-2.79-3.64-3.84-5.51-0.278-0.495-0.577-0.899-0.664-0.899-0.0881-0.000104-0.118,1.16-0.066,2.59,0.138,3.83,0.797,5.34,3.99,9.14,1.85,2.2,7.28,7.79,9.39,9.67l1.7,1.51,0.545-0.318c0.3-0.175,1.7-1.39,3.12-2.7z"
       stroke="#000"
       stroke-dasharray="none"
       stroke-miterlimit="4"
       stroke-width="1.25"
       fill="#FFF"
       style="stroke:#000000;stroke-opacity:1" />
  </g>
  <g
     id="layer2">
    <path
       id="path2995-1"
       d="M16,47.9c-10.8-10.8-13-13.5-13-16s2.16-5.1,12.9-15.9c10.8-10.8,13.5-12.9,16-12.9,2.55,0,5.15,2.12,16.1,13.1,10.3,10.3,13,13.6,13,15.8s-2.7,5.5-13,15.8c-10.9,10.9-13.6,13.1-16.1,13.1-2.51,0-5.18-2.17-16-13zm29.8-1.97c7.28-7.26,11.9-12.7,11.9-13.9,0-2.66-23.1-25.9-25.7-25.9-2.21,0-24.6,21.6-25.5,24.6-0.489,1.54,2.08,4.68,11.9,14.5,6.88,6.89,13.2,12.5,14,12.5,0.836,0,6.88-5.35,13.4-11.9zm-21.2,0.491c0.000048-0.000099,0.000363-0.000105,0.000331,0z"
       fill="#000"
       style="fill:#000000;fill-opacity:1" />
  </g>
</svg>
