<?xml version="1.0" encoding="UTF-8" standalone="no"?>
<!-- Created with Inkscape (http://www.inkscape.org/) -->

<svg
   xmlns:dc="http://purl.org/dc/elements/1.1/"
   xmlns:cc="http://creativecommons.org/ns#"
   xmlns:rdf="http://www.w3.org/1999/02/22-rdf-syntax-ns#"
   xmlns:svg="http://www.w3.org/2000/svg"
   xmlns="http://www.w3.org/2000/svg"
   xmlns:xlink="http://www.w3.org/1999/xlink"
   xmlns:sodipodi="http://sodipodi.sourceforge.net/DTD/sodipodi-0.dtd"
   xmlns:inkscape="http://www.inkscape.org/namespaces/inkscape"
   width="24"
   height="24"
   viewBox="0 0 24 24"
   id="svg2"
   version="1.1"
   inkscape:version="0.91 r13725"
   sodipodi:docname="4_wheel_drive_ute.svg">
  <defs
     id="defs4">
    <inkscape:perspective
       id="perspective10"
       inkscape:persp3d-origin="372.04724 : 350.78739 : 1"
       inkscape:vp_z="744.09448 : 526.18109 : 1"
       inkscape:vp_y="0 : 1000 : 0"
       inkscape:vp_x="0 : 526.18109 : 1"
       sodipodi:type="inkscape:persp3d" />
    <inkscape:perspective
       sodipodi:type="inkscape:persp3d"
       inkscape:vp_x="0 : 526.18109 : 1"
       inkscape:vp_y="0 : 1000 : 0"
       inkscape:vp_z="744.09448 : 526.18109 : 1"
       inkscape:persp3d-origin="372.04724 : 350.78739 : 1"
       id="perspective2390" />
    <inkscape:perspective
       sodipodi:type="inkscape:persp3d"
       inkscape:vp_x="0 : 526.18109 : 1"
       inkscape:vp_y="0 : 1000 : 0"
       inkscape:vp_z="744.09448 : 526.18109 : 1"
       inkscape:persp3d-origin="372.04724 : 350.78739 : 1"
       id="perspective2403" />
    <inkscape:perspective
       id="perspective2437"
       inkscape:persp3d-origin="32 : 21.333333 : 1"
       inkscape:vp_z="64 : 32 : 1"
       inkscape:vp_y="0 : 1000 : 0"
       inkscape:vp_x="0 : 32 : 1"
       sodipodi:type="inkscape:persp3d" />
    <inkscape:perspective
       id="perspective11498"
       inkscape:persp3d-origin="32 : 21.333333 : 1"
       inkscape:vp_z="64 : 32 : 1"
       inkscape:vp_y="0 : 1000 : 0"
       inkscape:vp_x="0 : 32 : 1"
       sodipodi:type="inkscape:persp3d" />
    <inkscape:perspective
       id="perspective48"
       inkscape:persp3d-origin="382.5 : 125 : 1"
       inkscape:vp_z="765 : 187.5 : 1"
       inkscape:vp_y="0 : 1000 : 0"
       inkscape:vp_x="0 : 187.5 : 1"
       sodipodi:type="inkscape:persp3d" />
    <linearGradient
       id="linearGradient9619">
      <stop
         id="stop9621"
         offset="0"
         style="stop-color: rgb(187, 187, 187); stop-opacity: 1;" />
      <stop
         id="stop9623"
         offset="1"
         style="stop-color: rgb(255, 255, 255); stop-opacity: 1;" />
    </linearGradient>
    <linearGradient
       id="linearGradient5196"
       inkscape:collect="always">
      <stop
         id="stop5198"
         offset="0"
         style="stop-color: rgb(201, 201, 201); stop-opacity: 1;" />
      <stop
         id="stop5200"
         offset="1"
         style="stop-color: rgb(201, 201, 201); stop-opacity: 0;" />
    </linearGradient>
    <linearGradient
       gradientUnits="userSpaceOnUse"
       y2="430.10822"
       x2="-774.98901"
       y1="619.61285"
       x1="-776.40326"
       id="linearGradient5202"
       xlink:href="#linearGradient5196"
       inkscape:collect="always" />
    <linearGradient
       gradientUnits="userSpaceOnUse"
       y2="295.75793"
       x2="-490.02499"
       y1="350.91223"
       x1="-1027.219"
       id="linearGradient9625"
       xlink:href="#linearGradient9619"
       inkscape:collect="always" />
    <linearGradient
       gradientTransform="matrix(0.467111,0,0,0.487697,583.26,486.273)"
       y2="430.10822"
       x2="-774.98901"
       y1="619.61285"
       x1="-776.40326"
       gradientUnits="userSpaceOnUse"
       id="linearGradient6733"
       xlink:href="#linearGradient5196"
       inkscape:collect="always" />
    <linearGradient
       gradientTransform="matrix(0.467111,0,0,0.487697,583.26,486.273)"
       y2="295.75793"
       x2="-490.02499"
       y1="350.91223"
       x1="-1027.219"
       gradientUnits="userSpaceOnUse"
       id="linearGradient6736"
       xlink:href="#linearGradient9619"
       inkscape:collect="always" />
    <linearGradient
       y2="430.10822"
       x2="-774.98901"
       y1="619.61285"
       x1="-776.40326"
       gradientTransform="matrix(0.441304,0,0,0.460753,417.87471,619.10371)"
       gradientUnits="userSpaceOnUse"
       id="linearGradient1360"
       xlink:href="#linearGradient5196"
       inkscape:collect="always" />
    <linearGradient
       y2="295.75793"
       x2="-490.02499"
       y1="350.91223"
       x1="-1027.219"
       gradientTransform="matrix(0.441304,0,0,0.460753,417.87471,619.10371)"
       gradientUnits="userSpaceOnUse"
       id="linearGradient1363"
       xlink:href="#linearGradient9619"
       inkscape:collect="always" />
    <inkscape:perspective
       sodipodi:type="inkscape:persp3d"
       inkscape:vp_x="0 : 526.18109 : 1"
       inkscape:vp_y="0 : 1000 : 0"
       inkscape:vp_z="744.09448 : 526.18109 : 1"
       inkscape:persp3d-origin="372.04724 : 350.78739 : 1"
       id="perspective10-7" />
    <inkscape:perspective
       id="perspective2390-6"
       inkscape:persp3d-origin="372.04724 : 350.78739 : 1"
       inkscape:vp_z="744.09448 : 526.18109 : 1"
       inkscape:vp_y="0 : 1000 : 0"
       inkscape:vp_x="0 : 526.18109 : 1"
       sodipodi:type="inkscape:persp3d" />
    <inkscape:perspective
       id="perspective2403-5"
       inkscape:persp3d-origin="372.04724 : 350.78739 : 1"
       inkscape:vp_z="744.09448 : 526.18109 : 1"
       inkscape:vp_y="0 : 1000 : 0"
       inkscape:vp_x="0 : 526.18109 : 1"
       sodipodi:type="inkscape:persp3d" />
    <inkscape:perspective
       sodipodi:type="inkscape:persp3d"
       inkscape:vp_x="0 : 32 : 1"
       inkscape:vp_y="0 : 1000 : 0"
       inkscape:vp_z="64 : 32 : 1"
       inkscape:persp3d-origin="32 : 21.333333 : 1"
       id="perspective2437-4" />
    <inkscape:perspective
       sodipodi:type="inkscape:persp3d"
       inkscape:vp_x="0 : 32 : 1"
       inkscape:vp_y="0 : 1000 : 0"
       inkscape:vp_z="64 : 32 : 1"
       inkscape:persp3d-origin="32 : 21.333333 : 1"
       id="perspective4043" />
    <inkscape:perspective
       sodipodi:type="inkscape:persp3d"
       inkscape:vp_x="0 : 32 : 1"
       inkscape:vp_y="0 : 1000 : 0"
       inkscape:vp_z="64 : 32 : 1"
       inkscape:persp3d-origin="32 : 21.333333 : 1"
       id="perspective2429" />
    <inkscape:perspective
       sodipodi:type="inkscape:persp3d"
       inkscape:vp_x="0 : 32 : 1"
       inkscape:vp_y="0 : 1000 : 0"
       inkscape:vp_z="64 : 32 : 1"
       inkscape:persp3d-origin="32 : 21.333333 : 1"
       id="perspective12440" />
  </defs>
  <sodipodi:namedview
     id="base"
     pagecolor="#ffffff"
     bordercolor="#666666"
     borderopacity="1.0"
     inkscape:pageopacity="0.0"
     inkscape:pageshadow="2"
     inkscape:zoom="16"
     inkscape:cx="8.0729581"
     inkscape:cy="4.2673705"
     inkscape:document-units="px"
     inkscape:current-layer="layer3"
     showgrid="true"
     units="px"
     inkscape:window-width="1288"
     inkscape:window-height="883"
     inkscape:window-x="528"
     inkscape:window-y="86"
     inkscape:window-maximized="0">
    <inkscape:grid
       type="xygrid"
       id="grid4136" />
  </sodipodi:namedview>
  <metadata
     id="metadata7">
    <rdf:RDF>
      <cc:Work
         rdf:about="">
        <dc:format>image/svg+xml</dc:format>
        <dc:type
           rdf:resource="http://purl.org/dc/dcmitype/StillImage" />
        <dc:title></dc:title>
      </cc:Work>
    </rdf:RDF>
  </metadata>
  <g
     inkscape:label="Layer 1"
     inkscape:groupmode="layer"
     id="layer1"
     transform="translate(0,-1028.3622)" />
  <g
     inkscape:groupmode="layer"
     id="layer3"
     inkscape:label="Layer 2">
    <path
       style="opacity:1;fill:#7c3100;fill-opacity:1;stroke:none;stroke-width:1;stroke-miterlimit:4;stroke-dasharray:none;stroke-opacity:1"
       d="m 9,7.0019531 c -0.2742182,1.613e-4 -0.5362816,0.1131805 -0.7246094,0.3125 L 6.0898438,9.6210938 3.3574219,10.011719 c -0.2131579,0.0312 -0.4104925,0.130549 -0.5625,0.283203 l -1.5,1.5 C 1.1076411,11.981806 1.002259,12.235426 1.0019531,12.5 l 0,1.5 C 1.0017639,14.551284 1.4487156,14.998236 2,14.998047 l 1.0507812,0 c 0.051709,-5.52e-4 0.1032966,-0.0051 0.1542969,-0.01367 0.2535344,1.108559 1.1154456,2.013672 2.2949219,2.013672 1.1794763,0 2.0413875,-0.905113 2.2949219,-2.013672 0.049713,0.0084 0.099987,0.01292 0.1503906,0.01367 l 2.0546875,0 4,0 0.05078,0 c 0.05171,-5.52e-4 0.103297,-0.0051 0.154297,-0.01367 0.253535,1.108559 1.115446,2.013672 2.294922,2.013672 1.179476,0 2.041387,-0.905113 2.294922,-2.013672 0.04971,0.0084 0.09999,0.01292 0.15039,0.01367 l 2.054688,0 C 21.551284,14.998236 21.998236,14.551284 21.998047,14 l 0,-3 C 21.998236,10.448716 21.551284,10.001764 21,10.001953 l -3,0 -1,0 -3.001953,0 0,-1.001953 0,-1 C 13.998236,7.4487156 13.551284,7.0017639 13,7.0019531 Z"
       id="path4537"
       inkscape:connector-curvature="0"
       sodipodi:nodetypes="cccccccccccsccccccsccccccccccccc" />
    <path
       style="opacity:1;fill:#ff6600;fill-opacity:1;stroke:none;stroke-width:1;stroke-miterlimit:4;stroke-dasharray:none;stroke-opacity:1"
       d="M 9 8 L 6.5742188 10.558594 L 3.5 11 L 2 12.5 L 2 14 L 3.0507812 14 C 3.2883568 12.836122 4.3121219 12.000129 5.5 12 C 6.6864102 12.002 7.7080318 12.837558 7.9453125 14 L 10 14 L 14 14 L 14.050781 14 C 14.288357 12.836122 15.312122 12.000129 16.5 12 C 17.68641 12.002 18.708033 12.837558 18.945312 14 L 21 14 L 21 11 L 18 11 L 17 11 L 13 11 L 13 9 L 13 8 L 9 8 z M 9.5 9 L 12 9 L 12 11 L 7.5 11 L 9.5 9 z M 5.5 13 C 4.6715729 13 4 13.671573 4 14.5 C 4 15.328427 4.6715729 16 5.5 16 C 6.3284271 16 7 15.328427 7 14.5 C 7 13.671573 6.3284271 13 5.5 13 z M 16.5 13 C 15.671573 13 15 13.671573 15 14.5 C 15 15.328427 15.671573 16 16.5 16 C 17.328427 16 18 15.328427 18 14.5 C 18 13.671573 17.328427 13 16.5 13 z "
       id="path4215" />
    <g
       id="layer2"
       inkscape:label="circle"
       transform="translate(-138.27429,111.29371)" />
    <path
       id="path8734"
       d="m -53.631265,807.17739 25.275955,-52.77983 9.98557,-12.38044 25.27598,-4.23542 50.2399,-2.93222 65.53031,1.30321 42.75072,5.53863 8.11328,3.25801 20.59524,36.81555 13.73016,30.62533 -39.00614,-7.16762 -16.85065,-1.30321 -19.65909,-1.30321 -25.27597,-1.3032 -31.51696,-0.3258 -32.76516,0.9774 -28.70852,0.6516 -24.02777,2.28061 -42.750717,7.16763"
       style="display:none;fill:url(#linearGradient1363);fill-opacity:1;fill-rule:evenodd;stroke:#000000;stroke-width:0.45092401px;stroke-linecap:butt;stroke-linejoin:miter;stroke-opacity:1"
       inkscape:connector-curvature="0" />
    <path
       id="path5172"
       d="m -14.62514,827.70287 14.97835,65.81188 3.74459,7.81923 7.48918,3.25802 27.46031,0 37.44589,0.6516 64.90621,-1.30321 4.99279,-1.9548 4.99279,-4.56122 2.49639,-11.72885 12.48196,-59.29585 -23.09163,-0.6516 -6.24098,23.45769 -5.61688,11.07726 -112.33768,-1.30321 -4.99279,-14.98687 -4.36868,-18.24487 -24.33982,1.9548 z"
       style="display:none;fill:url(#linearGradient1360);fill-opacity:1;fill-rule:evenodd;stroke:#000000;stroke-width:0.45092401px;stroke-linecap:butt;stroke-linejoin:miter;stroke-opacity:1"
       inkscape:connector-curvature="0" />
    <path
       id="path2441"
       d=""
       style="fill:#000000;fill-opacity:1;stroke:#000000;stroke-width:0.4194079;stroke-opacity:1"
       inkscape:connector-curvature="0" />
    <path
       id="path2469"
       d=""
       style="fill:#000000;fill-opacity:1;stroke:#000000;stroke-width:0.4194079;stroke-opacity:1"
       inkscape:connector-curvature="0" />
    <path
       id="path2494"
       d=""
       style="fill:#000000;fill-opacity:1;stroke:#000000;stroke-width:0.4194079;stroke-opacity:1"
       inkscape:connector-curvature="0" />
  </g>
</svg>
