<?xml version="1.0" encoding="UTF-8" standalone="no"?>
<!-- Created with Inkscape (http://www.inkscape.org/) -->

<svg
   xmlns:dc="http://purl.org/dc/elements/1.1/"
   xmlns:cc="http://creativecommons.org/ns#"
   xmlns:rdf="http://www.w3.org/1999/02/22-rdf-syntax-ns#"
   xmlns:svg="http://www.w3.org/2000/svg"
   xmlns="http://www.w3.org/2000/svg"
   xmlns:sodipodi="http://sodipodi.sourceforge.net/DTD/sodipodi-0.dtd"
   xmlns:inkscape="http://www.inkscape.org/namespaces/inkscape"
   width="64px"
   height="64px"
   id="svg2984"
   version="1.1"
   inkscape:version="0.48.4 r9939"
   sodipodi:docname="New document 1">
  <defs
     id="defs2986" />
  <sodipodi:namedview
     id="base"
     pagecolor="#ffffff"
     bordercolor="#666666"
     borderopacity="1.0"
     inkscape:pageopacity="0.0"
     inkscape:pageshadow="2"
     inkscape:zoom="5.5"
     inkscape:cx="32"
     inkscape:cy="32"
     inkscape:current-layer="layer1"
     showgrid="true"
     inkscape:document-units="px"
     inkscape:grid-bbox="true"
     inkscape:window-width="1920"
     inkscape:window-height="1138"
     inkscape:window-x="0"
     inkscape:window-y="25"
     inkscape:window-maximized="1" />
  <metadata
     id="metadata2989">
    <rdf:RDF>
      <cc:Work
         rdf:about="">
        <dc:format>image/svg+xml</dc:format>
        <dc:type
           rdf:resource="http://purl.org/dc/dcmitype/StillImage" />
        <dc:title></dc:title>
      </cc:Work>
    </rdf:RDF>
  </metadata>
  <g
     id="layer1"
     inkscape:label="Layer 1"
     inkscape:groupmode="layer">
    <path
       transform="matrix(4.1514809,0,0,4.1634093,-1.0300288,-1.3962812)"
       sodipodi:type="inkscape:offset"
       inkscape:radius="0.49108911"
       inkscape:original="M 7 1 L 7 7 L 1 7 L 1 9 L 7 9 L 7 15 L 9 15 L 9 9 L 15 9 L 15 7 L 9 7 L 9 1 L 7 1 z "
       style="fill:#000000;fill-opacity:1;stroke:none"
       id="path8100"
       d="M 6.9375,0.5 A 0.49113821,0.49113821 0 0 0 6.5,1 l 0,5.5 -5.5,0 A 0.49113821,0.49113821 0 0 0 0.5,7 l 0,2 A 0.49113821,0.49113821 0 0 0 1,9.5 l 5.5,0 0,5.5 A 0.49113821,0.49113821 0 0 0 7,15.5 l 2,0 A 0.49113821,0.49113821 0 0 0 9.5,15 l 0,-5.5 5.5,0 A 0.49113821,0.49113821 0 0 0 15.5,9 l 0,-2 A 0.49113821,0.49113821 0 0 0 15,6.5 L 9.5,6.5 9.5,1 A 0.49113821,0.49113821 0 0 0 9,0.5 l -2,0 a 0.49113821,0.49113821 0 0 0 -0.0625,0 z" />
    <path
       inkscape:connector-curvature="0"
       style="fill:#000000;fill-opacity:1;stroke:none"
       d="m 28.030337,2.7671277 0,24.9804563 -24.9088851,0 0,8.326819 24.9088851,0 0,24.980455 8.302963,0 0,-24.980455 24.908901,0 0,-8.326819 -24.908901,0 0,-24.9804563 -8.302963,0 z"
       id="rect3061" />
  </g>
</svg>
