<?xml version="1.0" encoding="UTF-8" standalone="no"?>
<!-- Created with Inkscape (http://www.inkscape.org/) -->

<svg
   xmlns:dc="http://purl.org/dc/elements/1.1/"
   xmlns:cc="http://creativecommons.org/ns#"
   xmlns:rdf="http://www.w3.org/1999/02/22-rdf-syntax-ns#"
   xmlns:svg="http://www.w3.org/2000/svg"
   xmlns="http://www.w3.org/2000/svg"
   xmlns:sodipodi="http://sodipodi.sourceforge.net/DTD/sodipodi-0.dtd"
   xmlns:inkscape="http://www.inkscape.org/namespaces/inkscape"
   width="24"
   height="24"
   viewBox="0 0 24.000001 24.000001"
   id="svg2"
   version="1.1"
   inkscape:version="0.91 r13725"
   sodipodi:docname="boxresize.svg">
  <defs
     id="defs4" />
  <sodipodi:namedview
     id="base"
     pagecolor="#ffffff"
     bordercolor="#666666"
     borderopacity="1.0"
     inkscape:pageopacity="0.0"
     inkscape:pageshadow="2"
     inkscape:zoom="2"
     inkscape:cx="-231.46551"
     inkscape:cy="111.73189"
     inkscape:document-units="px"
     inkscape:current-layer="layer1"
     showgrid="true"
     units="px"
     inkscape:window-width="1858"
     inkscape:window-height="1153"
     inkscape:window-x="62"
     inkscape:window-y="25"
     inkscape:window-maximized="1">
    <inkscape:grid
       type="xygrid"
       id="grid8068" />
  </sodipodi:namedview>
  <metadata
     id="metadata7">
    <rdf:RDF>
      <cc:Work
         rdf:about="">
        <dc:format>image/svg+xml</dc:format>
        <dc:type
           rdf:resource="http://purl.org/dc/dcmitype/StillImage" />
        <dc:title></dc:title>
      </cc:Work>
    </rdf:RDF>
  </metadata>
  <g
     inkscape:label="Layer 1"
     inkscape:groupmode="layer"
     id="layer1"
     transform="translate(0,-1028.3622)">
    <path
       sodipodi:type="inkscape:offset"
       inkscape:radius="1.0078094"
       inkscape:original="M 7 1032.3613 L 5 1034.3613 L 15.080078 1045.2812 L 12 1048.3613 L 20 1048.3613 L 20 1040.3613 L 17.080078 1043.2812 L 7 1032.3613 z "
       style="fill:#ffffff;fill-opacity:1;fill-rule:evenodd;stroke:none;stroke-width:1px;stroke-linecap:butt;stroke-linejoin:miter;stroke-opacity:1"
       id="path8120"
       d="m 7.0253906,1031.3535 a 1.0079102,1.0079102 0 0 0 -0.7382812,0.2949 l -2,2 a 1.0079102,1.0079102 0 0 0 -0.027344,1.3965 l 9.4238284,10.209 -2.396485,2.3945 A 1.0079102,1.0079102 0 0 0 12,1049.3691 l 8,0 a 1.0079102,1.0079102 0 0 0 1.007812,-1.0078 l 0,-8 a 1.0079102,1.0079102 0 0 0 -1.720703,-0.7129 l -2.177734,2.1778 -9.3691406,-10.1485 a 1.0079102,1.0079102 0 0 0 -0.7148438,-0.3242 z" />
    <path
       style="fill:#ffffff;fill-opacity:1;stroke:none;stroke-width:4;stroke-miterlimit:4;stroke-dasharray:none;stroke-opacity:1"
       d="M 20 0 L 20 20 L 0 20 L 0 24 L 20 24 L 24 24 L 24 20 L 24 0 L 20 0 z "
       transform="translate(0,1028.3622)"
       id="rect8270-6" />
    <path
       style="fill:#000000;fill-opacity:1;stroke:none;stroke-width:4;stroke-miterlimit:4;stroke-dasharray:none;stroke-opacity:1"
       d="M 21 1 L 21 21 L 1 21 L 1 23 L 21 23 L 23 23 L 23 21 L 23 1 L 21 1 z "
       transform="translate(0,1028.3622)"
       id="rect8219" />
    <path
       style="fill:#000000;fill-opacity:1;fill-rule:evenodd;stroke:none;stroke-width:1px;stroke-linecap:butt;stroke-linejoin:miter;stroke-opacity:1"
       d="M 7 4 L 5 6 L 15.080078 16.919922 L 12 20 L 20 20 L 20 12 L 17.080078 14.919922 L 7 4 z "
       transform="translate(0,1028.3622)"
       id="path8100" />
  </g>
</svg>
