<?xml version="1.0" encoding="UTF-8" standalone="no"?>
<!-- Svg Vector Icons : http://www.onlinewebfonts.com/icon -->

<svg
   xmlns:dc="http://purl.org/dc/elements/1.1/"
   xmlns:cc="http://creativecommons.org/ns#"
   xmlns:rdf="http://www.w3.org/1999/02/22-rdf-syntax-ns#"
   xmlns:svg="http://www.w3.org/2000/svg"
   xmlns="http://www.w3.org/2000/svg"
   xmlns:sodipodi="http://sodipodi.sourceforge.net/DTD/sodipodi-0.dtd"
   xmlns:inkscape="http://www.inkscape.org/namespaces/inkscape"
   version="1.1"
   x="0px"
   y="0px"
   viewBox="0 0 24 24.000004"
   enable-background="new 0 0 1000 1000"
   xml:space="preserve"
   id="svg2"
   inkscape:version="0.91 r13725"
   sodipodi:docname="clear.svg"
   width="24"
   height="24.000004"><defs
     id="defs22" /><sodipodi:namedview
     pagecolor="#ffffff"
     bordercolor="#666666"
     borderopacity="1"
     objecttolerance="10"
     gridtolerance="10"
     guidetolerance="10"
     inkscape:pageopacity="0"
     inkscape:pageshadow="2"
     inkscape:window-width="1920"
     inkscape:window-height="1021"
     id="namedview20"
     showgrid="false"
     fit-margin-top="0"
     fit-margin-left="0"
     fit-margin-right="0"
     fit-margin-bottom="0"
     showborder="false"
     inkscape:zoom="8"
     inkscape:cx="20.219714"
     inkscape:cy="17.000002"
     inkscape:window-x="0"
     inkscape:window-y="26"
     inkscape:window-maximized="1"
     inkscape:current-layer="g6" /><metadata
     id="metadata4"> Svg Vector Icons : http://www.onlinewebfonts.com/icon <rdf:RDF><cc:Work
     rdf:about=""><dc:format>image/svg+xml</dc:format><dc:type
       rdf:resource="http://purl.org/dc/dcmitype/StillImage" /><dc:title></dc:title></cc:Work></rdf:RDF></metadata><g
     id="g6"
     transform="matrix(0.0244898,0,0,0.0244898,-0.49959192,-0.244898)"><path
       d="M 761.4,990 257,990 c -44.7,0 -81.2,-35.7 -82.7,-80 l -66,-742.6 c -2.4,-27.3 17.7,-51.4 45,-53.8 27,-2.2 51.4,17.7 53.8,45 l 65.1,732.2 473.9,0 46.7,-550 c 2.5,-27.3 27.2,-47.2 53.9,-45 27.3,2.5 47.4,26.6 45,53.9 L 844,910 c -1.4,44.4 -37.9,80 -82.6,80 z"
       id="path8"
       inkscape:connector-curvature="0"
       style="fill:#ffffff" /><path
       d="m 930,191.9 -860,0 c -27.4,0 -49.6,-22.2 -49.6,-49.6 0,-27.4 22.2,-49.6 49.6,-49.6 l 860,0 c 27.4,0 49.6,22.2 49.6,49.6 0.1,27.4 -22.2,49.6 -49.6,49.6 z"
       id="path10"
       inkscape:connector-curvature="0"
       style="fill:#ffffff" /><path
       d="m 667.5,96.8 c 0,48 -71.3,86.8 -159.2,86.8 -88,0 -159.2,-38.9 -159.2,-86.8 0,-48 71.3,-86.8 159.2,-86.8 87.9,0 159.2,38.9 159.2,86.8 z"
       id="path12"
       inkscape:connector-curvature="0"
       style="fill:#ffffff" /><path
       d="m 349,828.7 c -17.2,0 -31.7,-13.3 -33,-30.7 L 283,334.5 c -1.3,-18.2 12.4,-34 30.6,-35.4 18.6,-1.2 34.1,12.4 35.3,30.6 L 382,793.2 c 1.3,18.2 -12.4,34.1 -30.6,35.3 -0.8,0.2 -1.6,0.2 -2.4,0.2 z"
       id="path14"
       inkscape:connector-curvature="0"
       style="fill:#ffffff" /><path
       d="m 508.3,828.7 c -18.3,0 -33.1,-14.8 -33.1,-33.1 l 0,-463.4 c 0,-18.3 14.8,-33.1 33.1,-33.1 18.3,0 33.1,14.8 33.1,33.1 l 0,463.5 c -0.1,18.2 -14.8,33 -33.1,33 z"
       id="path16"
       inkscape:connector-curvature="0"
       style="fill:#ffffff" /><path
       d="m 667.5,828.7 c -0.8,0 -1.6,0 -2.4,-0.1 -18.2,-1.3 -31.9,-17.1 -30.6,-35.3 l 33.1,-463.5 c 1.3,-18.2 16.5,-31.8 35.3,-30.6 18.2,1.3 31.9,17.1 30.6,35.4 L 700.4,798 c -1.2,17.4 -15.7,30.7 -32.9,30.7 z"
       id="path18"
       inkscape:connector-curvature="0"
       style="fill:#ffffff" /></g></svg>