<?xml version="1.0" encoding="UTF-8" standalone="no"?>
<!-- Created with Inkscape (http://www.inkscape.org/) -->

<svg
   xmlns:dc="http://purl.org/dc/elements/1.1/"
   xmlns:cc="http://creativecommons.org/ns#"
   xmlns:rdf="http://www.w3.org/1999/02/22-rdf-syntax-ns#"
   xmlns:svg="http://www.w3.org/2000/svg"
   xmlns="http://www.w3.org/2000/svg"
   xmlns:sodipodi="http://sodipodi.sourceforge.net/DTD/sodipodi-0.dtd"
   xmlns:inkscape="http://www.inkscape.org/namespaces/inkscape"
   width="24"
   height="24"
   viewBox="0 0 24 24"
   id="svg14243"
   version="1.1"
   inkscape:version="0.91 r13725"
   sodipodi:docname="measure-bearing.svg">
  <defs
     id="defs14245" />
  <sodipodi:namedview
     id="base"
     pagecolor="#ffffff"
     bordercolor="#666666"
     borderopacity="1.0"
     inkscape:pageopacity="0.0"
     inkscape:pageshadow="2"
     inkscape:zoom="0.99999996"
     inkscape:cx="-269.81239"
     inkscape:cy="17.717877"
     inkscape:document-units="px"
     inkscape:current-layer="layer1"
     showgrid="true"
     units="px"
     inkscape:window-width="1920"
     inkscape:window-height="1178"
     inkscape:window-x="1920"
     inkscape:window-y="0"
     inkscape:window-maximized="1">
    <inkscape:grid
       type="xygrid"
       id="grid18732" />
  </sodipodi:namedview>
  <metadata
     id="metadata14248">
    <rdf:RDF>
      <cc:Work
         rdf:about="">
        <dc:format>image/svg+xml</dc:format>
        <dc:type
           rdf:resource="http://purl.org/dc/dcmitype/StillImage" />
        <dc:title />
      </cc:Work>
    </rdf:RDF>
  </metadata>
  <g
     inkscape:label="Layer 1"
     inkscape:groupmode="layer"
     id="layer1"
     transform="translate(0,-1028.3622)">
    <path
       sodipodi:nodetypes="csccccccsssss"
       style="opacity:1;fill:#ffffff;fill-opacity:1;stroke:none;stroke-width:8;stroke-linecap:round;stroke-miterlimit:4;stroke-dasharray:none;stroke-opacity:1"
       d="m 7,1048.8622 c 0,1.3807 -1.1193,2.5 -2.5,2.5 -1.3807,0 -2.5,-1.1193 -2.5,-2.5 0,-1.1864 0.8376,-2.208 2,-2.4453 l 0,-13.1055 1,-0 0,13.1055 c 1.1639,0.2376 1.9999,1.2613 2,2.4492 z m -1,0 c 0,-0.8284 -0.6716,-1.5 -1.5,-1.5 -0.8284,0 -1.5,0.6716 -1.5,1.5 0,0.8284 0.6716,1.5 1.5,1.5 0.8284,0 1.5,-0.6716 1.5,-1.5 z"
       id="path18734"
       inkscape:connector-curvature="0" />
    <path
       style="opacity:1;fill:#ffffff;fill-opacity:1;stroke:none;stroke-width:8;stroke-linecap:round;stroke-miterlimit:4;stroke-dasharray:none;stroke-opacity:1"
       d="m 6.0345,1047.0765 10.2107,-8.1067 c -0.5272,-1.0644 -0.2326,-2.3529 0.7048,-3.0825 1.0897,-0.8479 2.6605,-0.6519 3.5084,0.4379 0.8479,1.0897 0.6518,2.6604 -0.4379,3.5083 -0.9376,0.727 -2.257,0.6949 -3.1581,-0.077 l -10.2107,8.1066 z m 13.3719,-8.0322 c 0.6538,-0.5088 0.7714,-1.4512 0.2627,-2.105 -0.5087,-0.6539 -1.4512,-0.7715 -2.105,-0.2627 -0.6538,0.5087 -0.7714,1.4511 -0.2627,2.1049 0.5087,0.6539 1.4512,0.7715 2.105,0.2628 z"
       id="path18734-3"
       inkscape:connector-curvature="0"
       inkscape:transform-center-x="-5.5269151"
       inkscape:transform-center-y="-7.1031499"
       sodipodi:nodetypes="ccccccccscscs" />
    <path
       style="opacity:1;fill:#ffffff;fill-opacity:1;stroke:none;stroke-width:1;stroke-linecap:round;stroke-linejoin:miter;stroke-miterlimit:4;stroke-dasharray:none;stroke-opacity:1"
       d="m 12.4883,1042.0478 -0.7637,0.6504 a 9.5,9.5 0 0 0 -6.8281,-3.3223 l 0.043,-1.0039 a 10.5,10.5 0 0 1 7.5488,3.6758 z"
       id="path4151"
       inkscape:connector-curvature="0" />
    <path
       style="opacity:1;fill:#ffffff;fill-opacity:1;stroke:none;stroke-width:1;stroke-linecap:round;stroke-linejoin:miter;stroke-miterlimit:4;stroke-dasharray:none;stroke-opacity:1"
       d="M 2,8 4.5,6 7,8.0000001 4.5,0 Z"
       transform="translate(0,1028.3622)"
       id="rect4138"
       inkscape:connector-curvature="0"
       sodipodi:nodetypes="ccccc" />
  </g>
</svg>
