<?xml version="1.0" encoding="UTF-8" standalone="no"?>
<svg
   xmlns:dc="http://purl.org/dc/elements/1.1/"
   xmlns:cc="http://creativecommons.org/ns#"
   xmlns:rdf="http://www.w3.org/1999/02/22-rdf-syntax-ns#"
   xmlns:svg="http://www.w3.org/2000/svg"
   xmlns="http://www.w3.org/2000/svg"
   xmlns:sodipodi="http://sodipodi.sourceforge.net/DTD/sodipodi-0.dtd"
   xmlns:inkscape="http://www.inkscape.org/namespaces/inkscape"
   enable-background="new 0 0 128 128"
   version="1.1"
   viewBox="0 0 128 128"
   xml:space="preserve"
   id="svg2"
   inkscape:version="0.91 r13725"
   sodipodi:docname="customized-outlook-forecast.svg"><metadata
     id="metadata40"><rdf:RDF><cc:Work
         rdf:about=""><dc:format>image/svg+xml</dc:format><dc:type
           rdf:resource="http://purl.org/dc/dcmitype/StillImage" /></cc:Work></rdf:RDF></metadata><defs
     id="defs38" /><sodipodi:namedview
     pagecolor="#ffffff"
     bordercolor="#666666"
     borderopacity="1"
     objecttolerance="10"
     gridtolerance="10"
     guidetolerance="10"
     inkscape:pageopacity="0"
     inkscape:pageshadow="2"
     inkscape:window-width="1920"
     inkscape:window-height="1167"
     id="namedview36"
     showgrid="false"
     inkscape:zoom="1.84375"
     inkscape:cx="-119.86441"
     inkscape:cy="84.610169"
     inkscape:window-x="3840"
     inkscape:window-y="0"
     inkscape:window-maximized="1"
     inkscape:current-layer="svg2" /><g
     id="Layer_1"><rect
       fill="#F4F5F5"
       height="1520"
       opacity="0"
       width="727.938"
       x="-379.984"
       y="-731"
       id="rect5" /></g><g
     id="Layer_2"><g
       id="g8"><circle
         cx="47.36"
         cy="46.722"
         fill="#FFCC07"
         r="25.167"
         id="circle24" /><circle
         cx="47.36"
         cy="46.722"
         fill="#F4EC4E"
         r="17.182"
         id="circle26" /><circle
         cx="47.36"
         cy="46.722"
         fill="#F5ECDF"
         r="8.682"
         id="circle28" /><path
         d="M97.633,62.205c0.681-2.096,1.061-4.327,1.061-6.65c0-11.874-9.626-21.5-21.5-21.5    c-9.046,0-16.772,5.593-19.947,13.504c-2.813-1.787-6.14-2.837-9.72-2.837c-10.009,0-18.124,8.095-18.163,18.095    c-6.995,2.527-12.169,9.205-12.169,17.071c0,9.967,7.805,18.05,17.805,18.157V98h58.527c10.033,0,18.167-8.106,18.167-18.139    C111.693,71.242,105.685,64.069,97.633,62.205z"
         fill="#6AC5F0"
         id="path30" /><path
         d="M57.247,47.559c-2.813-1.787-6.14-2.837-9.72-2.837c-10.009,0-18.124,8.095-18.163,18.095    c-6.995,2.527-12.169,9.205-12.169,17.071c0,3.964,1.25,7.618,3.366,10.603c-0.942-2.244-1.469-4.714-1.469-7.314    c0-8.001,5.499-14.795,12.624-17.365c0.04-10.172,8.306-18.407,18.502-18.407c3.646,0,7.036,1.068,9.901,2.886    c3.234-8.047,11.104-13.736,20.319-13.736c4.056,0,7.851,1.105,11.109,3.024c-3.808-3.423-8.828-5.524-14.352-5.524    C68.148,34.055,60.421,39.648,57.247,47.559z"
         fill="#A8DBEE"
         id="path32" /><path
         d="M73.519,67.819c-1.978-1.257-4.317-1.995-6.834-1.995c-7.037,0-12.742,5.691-12.77,12.722    c-4.918,1.776-8.556,6.472-8.556,12.002c0,2.787,0.879,5.356,2.366,7.454c-0.662-1.577-1.033-3.314-1.033-5.142    c0-5.625,3.866-10.402,8.876-12.209c0.028-7.152,5.84-12.941,13.008-12.941c2.564,0,4.947,0.751,6.961,2.029    c2.274-5.657,7.807-9.657,14.285-9.657c2.851,0,5.52,0.777,7.81,2.126c-2.677-2.407-6.207-3.884-10.09-3.884    C81.183,58.326,75.751,62.258,73.519,67.819z"
         fill="#A8DBEE"
         id="path34" /></g></g><path
     inkscape:connector-curvature="0"
     d="m 97.45196,67.971788 c -1.27388,0 -2.3077,1.033838 -2.3077,2.307696 l 0,0.396619 c 0,1.10308 -0.77675,2.087238 -1.86599,2.262618 -0.52847,0.0854 -1.05159,0.184399 -1.56849,0.30198 -1.07078,0.244619 -2.153637,-0.36162 -2.573637,-1.374679 l -0.153246,-0.360578 c -0.486927,-1.176921 -1.836109,-1.73774 -3.015327,-1.248501 -1.176927,0.486919 -1.737723,1.836079 -1.24849,3.015317 l 0.153245,0.3696 c 0.424622,1.01538 0.08509,2.217438 -0.851864,2.798977 -0.452305,0.281512 -0.893577,0.576472 -1.325113,0.883397 -0.895377,0.639242 -2.133968,0.49375 -2.91165,-0.283954 l -0.279436,-0.279446 c -0.902319,-0.902296 -2.363237,-0.902296 -3.263232,0 -0.899998,0.902298 -0.899998,2.363214 0,3.263215 l 0.279445,0.279462 c 0.777696,0.777688 0.923183,2.013963 0.283964,2.911632 -0.306927,0.431555 -0.601881,0.872829 -0.883419,1.325127 -0.58154,0.936943 -1.785791,1.278669 -2.803482,0.856372 l -0.365087,-0.153258 c -1.176919,-0.486925 -2.530596,0.07166 -3.019826,1.248498 -0.486923,1.17691 0.07159,2.526071 1.248494,3.015311 l 0.36058,0.1488 c 1.013073,0.419995 1.623819,1.502859 1.379203,2.573627 -0.117708,0.516928 -0.221105,1.040059 -0.30649,1.568509 -0.173079,1.086929 -1.155033,1.866005 -2.258109,1.866005 l -0.396635,0 c -1.273846,0 -2.30769,1.033812 -2.30769,2.30766 0,1.27386 1.033844,2.307706 2.30769,2.307706 l 0.396635,0 c 1.103076,0 2.087233,0.77675 2.262618,1.86598 0.0854,0.52845 0.184299,1.05158 0.301981,1.56849 0.244616,1.07079 -0.361621,2.15362 -1.374699,2.57362 l -0.360574,0.15326 c -1.176923,0.48692 -1.737727,1.8361 -1.248497,3.01532 0.486924,1.17691 1.836091,1.73773 3.015319,1.2485 l 0.369593,-0.15326 c 1.01769,-0.42231 2.219638,-0.0828 2.803484,0.85186 0.281536,0.45231 0.57418,0.8958 0.883411,1.32963 0.639232,0.89539 0.493732,2.13397 -0.28395,2.91167 L 76.24103,115.924 c -0.902307,0.90231 -0.902307,2.36321 0,3.26321 0.902313,0.9 2.363218,0.90234 3.263232,0 l 0.28395,-0.27942 c 0.777681,-0.77771 2.011759,-0.9277 2.907149,-0.28846 0.433828,0.30923 0.877323,0.60637 1.329614,0.88792 0.934609,0.58153 1.278681,1.7858 0.856377,2.80346 l -0.153259,0.36508 c -0.486928,1.17692 0.07172,2.53064 1.248491,3.01984 1.176927,0.48693 2.526081,-0.0716 3.015327,-1.2485 l 0.1488,-0.36056 c 0.42,-1.0131 1.502839,-1.62383 2.573609,-1.37922 0.51693,0.11784 1.04006,0.22111 1.5685,0.30649 1.0823,0.16833 1.86148,1.15053 1.86148,2.25361 l 0,0.39661 c 0,1.27385 1.03384,2.30771 2.3077,2.30771 1.27383,0 2.30769,-1.03386 2.30769,-2.30771 l 0,-0.39661 c 0,-1.10308 0.77676,-2.08724 1.866,-2.26261 0.52843,-0.0853 1.05157,-0.18439 1.56848,-0.30199 1.07075,-0.24461 2.15362,0.3616 2.57362,1.37468 l 0.15326,0.3606 c 0.48692,1.17692 1.8361,1.73772 3.01532,1.24847 1.1769,-0.4869 1.73774,-1.83607 1.2485,-3.0153 l -0.15327,-0.36959 c -0.42229,-1.01771 -0.0828,-2.21964 0.85187,-2.8035 0.45232,-0.28151 0.8958,-0.57416 1.32964,-0.8834 0.89538,-0.63923 2.13396,-0.49373 2.91164,0.28396 l 0.27946,0.28396 c 0.90231,0.90228 2.3632,0.90228 3.2632,0 0.9,-0.9023 0.9023,-2.36322 0,-3.26323 l -0.27943,-0.28396 c -0.77769,-0.77767 -0.92769,-2.01175 -0.28848,-2.90713 0.30925,-0.43386 0.6064,-0.87732 0.88793,-1.32965 0.58154,-0.93461 1.78578,-1.27867 2.80348,-0.85635 l 0.36508,0.15326 c 1.17692,0.4869 2.5306,-0.0716 3.01984,-1.2485 0.48694,-1.17693 -0.0718,-2.52609 -1.2485,-3.01532 l -0.36057,-0.1488 c -1.01307,-0.42 -1.62384,-1.50286 -1.37919,-2.57361 0.11748,-0.51696 0.22108,-1.04007 0.30646,-1.56851 0.16835,-1.08234 1.15054,-1.86149 2.25363,-1.86149 l 0.39661,0 c 1.27384,0 2.30771,-1.033858 2.30771,-2.307694 0,-1.273872 -1.03387,-2.307684 -2.30771,-2.307684 l -0.39661,0 c -1.10309,0 -2.08725,-0.776772 -2.26265,-1.866001 -0.0853,-0.52845 -0.1842,-1.051582 -0.30198,-1.568495 -0.2446,-1.070783 0.36162,-2.153618 1.3747,-2.57364 l 0.36058,-0.153257 c 1.17692,-0.486909 1.73772,-1.836087 1.24851,-3.015312 -0.48693,-1.176926 -1.83611,-1.737738 -3.01533,-1.248498 l -0.3696,0.153258 c -1.01768,0.422314 -2.21961,0.0828 -2.80347,-0.851864 -0.28153,-0.452297 -0.57419,-0.895783 -0.88342,-1.329619 -0.63923,-0.895406 -0.49373,-2.13398 0.28396,-2.911665 l 0.28394,-0.279446 c 0.90232,-0.902297 0.90232,-2.363231 0,-3.263231 -0.9023,-0.902291 -2.36322,-0.902291 -3.26322,0 l -0.27945,0.283972 c -0.77768,0.777703 -2.01627,0.927704 -2.91162,0.28848 -0.43388,-0.30924 -0.87732,-0.606412 -1.32965,-0.887924 -0.93461,-0.581539 -1.27417,-1.785798 -0.85185,-2.803497 l 0.15327,-0.36508 c 0.48692,-1.176919 -0.0716,-2.530596 -1.24851,-3.019835 -1.17691,-0.486919 -2.52609,0.0716 -3.01534,1.248498 l -0.15324,0.36058 c -0.42,1.013078 -1.50287,1.623817 -2.57363,1.379198 -0.51691,-0.1176 -1.04004,-0.2211 -1.56851,-0.30648 -1.08462,-0.173001 -1.8615,-1.155038 -1.8615,-2.258116 l 0,-0.39662 c 0,-1.27386 -1.03383,-2.307698 -2.30766,-2.307698 z m 0,11.538438 c 9.41223,0 17.16593,7.049714 18.30374,16.153848 l -14.31487,0 a 4.6153796,4.6153793 0 0 0 -3.98887,-2.307682 4.6153796,4.6153793 0 0 0 -0.004,0 l -7.1574,-12.403868 c 2.20273,-0.928286 4.62169,-1.442298 7.16194,-1.442298 z m -11.14633,3.768037 7.15293,12.385811 a 4.6153796,4.6153793 0 0 0 -0.62198,2.307684 4.6153796,4.6153793 0 0 0 0.62198,2.298682 l -7.157445,12.3903 c -4.434313,-3.37208 -7.310685,-8.68884 -7.310685,-14.688982 0,-6.002442 2.878009,-11.321629 7.3152,-14.693495 z m 15.13969,17.001187 14.31038,0 c -1.13781,9.10412 -8.89151,16.15383 -18.30374,16.15383 -2.54028,0 -4.95924,-0.51401 -7.16196,-1.44229 l 7.15744,-12.40388 a 4.6153796,4.6153793 0 0 0 0.004,0 4.6153796,4.6153793 0 0 0 3.99338,-2.30766 z"
     id="path4192"
     style="fill:#ffffff" /></svg>