<?xml version="1.0" encoding="UTF-8" standalone="no"?>
<!-- Created with Inkscape (http://www.inkscape.org/) -->

<svg
   xmlns:dc="http://purl.org/dc/elements/1.1/"
   xmlns:cc="http://creativecommons.org/ns#"
   xmlns:rdf="http://www.w3.org/1999/02/22-rdf-syntax-ns#"
   xmlns:svg="http://www.w3.org/2000/svg"
   xmlns="http://www.w3.org/2000/svg"
   xmlns:sodipodi="http://sodipodi.sourceforge.net/DTD/sodipodi-0.dtd"
   xmlns:inkscape="http://www.inkscape.org/namespaces/inkscape"
   width="24"
   height="24"
   viewBox="0 0 24 24"
   id="svg14243"
   version="1.1"
   inkscape:version="0.91 r13725"
   sodipodi:docname="measure-area.svg">
  <defs
     id="defs14245" />
  <sodipodi:namedview
     id="base"
     pagecolor="#ffffff"
     bordercolor="#666666"
     borderopacity="1.0"
     inkscape:pageopacity="0.0"
     inkscape:pageshadow="2"
     inkscape:zoom="22.627417"
     inkscape:cx="8.387149"
     inkscape:cy="12.159278"
     inkscape:document-units="px"
     inkscape:current-layer="layer1"
     showgrid="true"
     units="px"
     inkscape:window-width="1920"
     inkscape:window-height="1178"
     inkscape:window-x="1920"
     inkscape:window-y="0"
     inkscape:window-maximized="1">
    <inkscape:grid
       type="xygrid"
       id="grid18732" />
  </sodipodi:namedview>
  <metadata
     id="metadata14248">
    <rdf:RDF>
      <cc:Work
         rdf:about="">
        <dc:format>image/svg+xml</dc:format>
        <dc:type
           rdf:resource="http://purl.org/dc/dcmitype/StillImage" />
        <dc:title></dc:title>
      </cc:Work>
    </rdf:RDF>
  </metadata>
  <g
     inkscape:label="Layer 1"
     inkscape:groupmode="layer"
     id="layer1"
     transform="translate(0,-1028.3622)">
    <path
       style="opacity:1;fill:#ffffff;fill-opacity:1;stroke:none;stroke-width:8;stroke-linecap:round;stroke-miterlimit:4;stroke-dasharray:none;stroke-opacity:1"
       d="M 11.5 1 A 2.5 2.5 0 0 0 9 3.5 A 2.5 2.5 0 0 0 9.3535156 4.7773438 L 3.7773438 10.353516 A 2.5 2.5 0 0 0 2.5 10 A 2.5 2.5 0 0 0 0 12.5 A 2.5 2.5 0 0 0 2.5 15 A 2.5 2.5 0 0 0 4.9453125 13 L 18.050781 13 A 2.5 2.5 0 0 0 20.5 15 A 2.5 2.5 0 0 0 23 12.5 A 2.5 2.5 0 0 0 20.5 10 A 2.5 2.5 0 0 0 19.123047 10.416016 L 13.583984 4.8769531 A 2.5 2.5 0 0 0 14 3.5 A 2.5 2.5 0 0 0 11.5 1 z M 11.5 2 A 1.5 1.5 0 0 1 13 3.5 A 1.5 1.5 0 0 1 11.5 5 A 1.5 1.5 0 0 1 10 3.5 A 1.5 1.5 0 0 1 11.5 2 z M 10.027344 5.5175781 A 2.5 2.5 0 0 0 11.5 6 A 2.5 2.5 0 0 0 12.876953 5.5839844 L 18.416016 11.123047 A 2.5 2.5 0 0 0 18.054688 12 L 4.9492188 12 A 2.5 2.5 0 0 0 4.5175781 11.027344 L 10.027344 5.5175781 z M 2.5 11 A 1.5 1.5 0 0 1 4 12.5 A 1.5 1.5 0 0 1 2.5 14 A 1.5 1.5 0 0 1 1 12.5 A 1.5 1.5 0 0 1 2.5 11 z M 20.5 11 A 1.5 1.5 0 0 1 22 12.5 A 1.5 1.5 0 0 1 20.5 14 A 1.5 1.5 0 0 1 19 12.5 A 1.5 1.5 0 0 1 20.5 11 z "
       transform="translate(0,1028.3622)"
       id="path18734" />
    <path
       style="opacity:1;fill:#ffffff;fill-opacity:1;stroke:none;stroke-width:8;stroke-linecap:round;stroke-miterlimit:4;stroke-dasharray:none;stroke-opacity:1"
       d="m 2,1045.3622 0,5 19,0 0,-5 z m 1,1 1,0 0,2 1,0 0,-2 1,0 0,1 1,0 0,-1 1,0 0,2 1,0 0,-2 1,0 0,1 1,0 0,-1 1,0 0,2 1,0 0,-2 1,0 0,1 1,0 0,-1 1,0 0,2 1,0 0,-2 1,0 0,1 1,0 0,-1 1,0 0,3 -17,0 z"
       id="rect18753"
       inkscape:connector-curvature="0"
       sodipodi:nodetypes="cccccccccccccccccccccccccccccccccccccccccc" />
  </g>
</svg>
