<?xml version="1.0" encoding="UTF-8" standalone="no"?>
<!-- Created with Inkscape (http://www.inkscape.org/) -->

<svg
   xmlns:dc="http://purl.org/dc/elements/1.1/"
   xmlns:cc="http://creativecommons.org/ns#"
   xmlns:rdf="http://www.w3.org/1999/02/22-rdf-syntax-ns#"
   xmlns:svg="http://www.w3.org/2000/svg"
   xmlns="http://www.w3.org/2000/svg"
   xmlns:sodipodi="http://sodipodi.sourceforge.net/DTD/sodipodi-0.dtd"
   xmlns:inkscape="http://www.inkscape.org/namespaces/inkscape"
   width="24"
   height="24"
   viewBox="0 0 24 24"
   id="svg14243"
   version="1.1"
   inkscape:version="0.91 r13725"
   sodipodi:docname="measure-lines.svg">
  <defs
     id="defs14245" />
  <sodipodi:namedview
     id="base"
     pagecolor="#ffffff"
     bordercolor="#666666"
     borderopacity="1.0"
     inkscape:pageopacity="0.0"
     inkscape:pageshadow="2"
     inkscape:zoom="11.313708"
     inkscape:cx="-4.1753242"
     inkscape:cy="9.8247364"
     inkscape:document-units="px"
     inkscape:current-layer="layer1"
     showgrid="true"
     units="px"
     inkscape:window-width="1920"
     inkscape:window-height="1178"
     inkscape:window-x="1920"
     inkscape:window-y="0"
     inkscape:window-maximized="1">
    <inkscape:grid
       type="xygrid"
       id="grid18732" />
  </sodipodi:namedview>
  <metadata
     id="metadata14248">
    <rdf:RDF>
      <cc:Work
         rdf:about="">
        <dc:format>image/svg+xml</dc:format>
        <dc:type
           rdf:resource="http://purl.org/dc/dcmitype/StillImage" />
        <dc:title></dc:title>
      </cc:Work>
    </rdf:RDF>
  </metadata>
  <g
     inkscape:label="Layer 1"
     inkscape:groupmode="layer"
     id="layer1"
     transform="translate(0,-1028.3622)">
    <path
       style="opacity:1;fill:#ffffff;fill-opacity:1;stroke:none;stroke-width:8;stroke-linecap:round;stroke-miterlimit:4;stroke-dasharray:none;stroke-opacity:1"
       d="M 2.5 6 A 2.5 2.5 0 0 0 0 8.5 A 2.5 2.5 0 0 0 2.5 11 A 2.5 2.5 0 0 0 4.9453125 9 L 18.050781 9 A 2.5 2.5 0 0 0 20.5 11 A 2.5 2.5 0 0 0 23 8.5 A 2.5 2.5 0 0 0 20.5 6 A 2.5 2.5 0 0 0 18.054688 8 L 4.9492188 8 A 2.5 2.5 0 0 0 2.5 6 z M 2.5 7 A 1.5 1.5 0 0 1 4 8.5 A 1.5 1.5 0 0 1 2.5 10 A 1.5 1.5 0 0 1 1 8.5 A 1.5 1.5 0 0 1 2.5 7 z M 20.5 7 A 1.5 1.5 0 0 1 22 8.5 A 1.5 1.5 0 0 1 20.5 10 A 1.5 1.5 0 0 1 19 8.5 A 1.5 1.5 0 0 1 20.5 7 z "
       transform="translate(0,1028.3622)"
       id="path18734" />
    <path
       style="opacity:1;fill:#ffffff;fill-opacity:1;stroke:none;stroke-width:8;stroke-linecap:round;stroke-miterlimit:4;stroke-dasharray:none;stroke-opacity:1"
       d="m 2,13 0,5 19,0 0,-5 z m 1,1 1,0 0,2 1,0 0,-2 1,0 0,1 1,0 0,-1 1,0 0,2 1,0 0,-2 1,0 0,1 1,0 0,-1 1,0 0,2 1,0 0,-2 1,0 0,1 1,0 0,-1 1,0 0,2 1,0 0,-2 1,0 0,1 1,0 0,-1 1,0 0,3 -17,0 z"
       transform="translate(0,1028.3622)"
       id="rect18753"
       inkscape:connector-curvature="0"
       sodipodi:nodetypes="cccccccccccccccccccccccccccccccccccccccccc" />
  </g>
</svg>
