<?xml version="1.0" encoding="UTF-8" standalone="no"?>
<!-- Svg Vector Icons : http://www.onlinewebfonts.com/icon -->

<svg
   xmlns:dc="http://purl.org/dc/elements/1.1/"
   xmlns:cc="http://creativecommons.org/ns#"
   xmlns:rdf="http://www.w3.org/1999/02/22-rdf-syntax-ns#"
   xmlns:svg="http://www.w3.org/2000/svg"
   xmlns="http://www.w3.org/2000/svg"
   xmlns:sodipodi="http://sodipodi.sourceforge.net/DTD/sodipodi-0.dtd"
   xmlns:inkscape="http://www.inkscape.org/namespaces/inkscape"
   version="1.1"
   x="0px"
   y="0px"
   viewBox="0 0 128 128"
   enable-background="new 0 0 1000 1000"
   xml:space="preserve"
   id="svg2"
   inkscape:version="0.91 r13725"
   sodipodi:docname="non-tool.svg"
   width="128"
   height="128"><defs
     id="defs20" /><sodipodi:namedview
     pagecolor="#ffffff"
     bordercolor="#666666"
     borderopacity="1"
     objecttolerance="10"
     gridtolerance="10"
     guidetolerance="10"
     inkscape:pageopacity="0"
     inkscape:pageshadow="2"
     inkscape:window-width="1920"
     inkscape:window-height="1141"
     id="namedview18"
     showgrid="false"
     inkscape:zoom="2.5730843"
     inkscape:cx="62.652274"
     inkscape:cy="30.191909"
     inkscape:window-x="1920"
     inkscape:window-y="26"
     inkscape:window-maximized="1"
     inkscape:current-layer="g8"
     fit-margin-top="0"
     fit-margin-left="0"
     fit-margin-right="0"
     fit-margin-bottom="0" /><metadata
     id="metadata4"> Svg Vector Icons : http://www.onlinewebfonts.com/icon <rdf:RDF><cc:Work
     rdf:about=""><dc:format>image/svg+xml</dc:format><dc:type
       rdf:resource="http://purl.org/dc/dcmitype/StillImage" /><dc:title /></cc:Work></rdf:RDF></metadata><g
     id="g6"
     transform="translate(-436.01017,-435.15072)"><g
       id="g8"><path
         d="m 523.17261,485.19395 c 0,0 1.8407,1.63235 3.35496,0.87119 1.71374,-0.87119 6.53764,3.94331 8.07909,5.07129 0.01,0 0.0182,0 0.0362,0.01 l -0.84328,0.85285 c -1.11528,1.10965 -1.11528,2.92539 0,4.04419 1.10624,1.11879 2.89252,1.11879 3.99874,0 l 6.6646,-6.73114 c 1.09715,-1.11881 1.10621,-2.93456 0,-4.05336 -1.09718,-1.10962 -2.89252,-1.10962 -3.99874,0 l -1.10625,1.1188 c -0.9158,-1.28386 -2.44819,-3.46644 -2.25779,-4.1909 0.81608,-3.16383 -5.57649,-10.65611 -5.57649,-10.65611 -15.85897,-16.03 -26.44975,-15.67236 -31.49125,-13.91162 -2.02204,0.70612 -1.65028,1.14631 0.45336,1.5223 15.28773,2.69612 17.18284,11.82075 14.59861,15.33306 -0.99742,1.35723 0.45337,2.99875 0.45337,2.99875 l 0.54404,0.55021 -25.81502,26.10838 c 0.35362,0.21092 0.68911,0.45851 0.98834,0.76116 l 4.34331,4.39264 c 0.29923,0.30263 0.53498,0.64194 0.74354,0.99042 l 25.81504,-26.10837 1.01554,1.02708 z"
         id="path14"
         style="fill:#ffffff;fill-opacity:1"
         inkscape:connector-curvature="0" /><path
         d="m 491.67679,505.03026 c -0.82653,-0.82675 -2.23557,-0.88187 -3.1172,-0.1102 l -24.90602,22.33812 c -0.88951,0.76374 -0.93672,2.07081 -0.11014,2.89756 l 6.78539,6.7794 c 0.82652,0.82675 2.13322,0.7795 2.89678,-0.10236 l 22.33984,-24.92075 c 0.76356,-0.88188 0.71632,-2.29129 -0.11015,-3.11804 l -3.77841,-3.7637 z"
         id="path16"
         style="fill:#ffffff;fill-opacity:1"
         inkscape:connector-curvature="0" /><ellipse
         style="opacity:1;fill:#000000;fill-opacity:0;fill-rule:nonzero;stroke:#ff0000;stroke-width:9.70276546;stroke-linecap:butt;stroke-linejoin:miter;stroke-miterlimit:0;stroke-dasharray:none;stroke-dashoffset:0;stroke-opacity:1"
         id="path4138"
         cx="500.32986"
         cy="499.02536"
         rx="58.8741"
         ry="58.291145" /><path
         style="fill:none;fill-rule:evenodd;stroke:#ff0000;stroke-width:10;stroke-linecap:butt;stroke-linejoin:miter;stroke-miterlimit:4;stroke-dasharray:none;stroke-opacity:1"
         d="m 457.32391,457.19594 86.37406,87.36665"
         id="path4140"
         inkscape:connector-curvature="0" /></g></g></svg>