<?xml version="1.0" encoding="UTF-8" standalone="no"?>
<!-- Svg Vector Icons : http://www.onlinewebfonts.com/icon -->

<svg
   xmlns:dc="http://purl.org/dc/elements/1.1/"
   xmlns:cc="http://creativecommons.org/ns#"
   xmlns:rdf="http://www.w3.org/1999/02/22-rdf-syntax-ns#"
   xmlns:svg="http://www.w3.org/2000/svg"
   xmlns="http://www.w3.org/2000/svg"
   xmlns:sodipodi="http://sodipodi.sourceforge.net/DTD/sodipodi-0.dtd"
   xmlns:inkscape="http://www.inkscape.org/namespaces/inkscape"
   version="1.1"
   x="0px"
   y="0px"
   viewBox="0 0 128 128"
   enable-background="new 0 0 1000 1000"
   xml:space="preserve"
   id="svg2"
   inkscape:version="0.91 r13725"
   sodipodi:docname="toolbox.svg"
   width="128"
   height="128"><defs
     id="defs20" /><sodipodi:namedview
     pagecolor="#ffffff"
     bordercolor="#666666"
     borderopacity="1"
     objecttolerance="10"
     gridtolerance="10"
     guidetolerance="10"
     inkscape:pageopacity="0"
     inkscape:pageshadow="2"
     inkscape:window-width="1920"
     inkscape:window-height="1167"
     id="namedview18"
     showgrid="false"
     inkscape:zoom="0.236"
     inkscape:cx="72.464406"
     inkscape:cy="63.15072"
     inkscape:window-x="3840"
     inkscape:window-y="0"
     inkscape:window-maximized="1"
     inkscape:current-layer="g8"
     fit-margin-top="0"
     fit-margin-left="0"
     fit-margin-right="0"
     fit-margin-bottom="0" /><metadata
     id="metadata4"> Svg Vector Icons : http://www.onlinewebfonts.com/icon <rdf:RDF><cc:Work
     rdf:about=""><dc:format>image/svg+xml</dc:format><dc:type
       rdf:resource="http://purl.org/dc/dcmitype/StillImage" /><dc:title></dc:title></cc:Work></rdf:RDF></metadata><g
     id="g6"
     transform="translate(-436.01017,-435.15072)"><g
       id="g8"><path
         d="m 461.36087,485.92007 c 2.57304,0 5.09385,-0.4049 7.53629,-1.17551 l 14.47176,14.45871 15.84319,-15.84319 -14.47177,-14.47177 c 2.78203,-8.71179 0.49633,-18.36399 -5.99507,-24.85539 -4.62365,-4.63671 -10.78852,-7.18364 -17.3191,-7.18364 -3.65712,0 -7.31425,0.82286 -10.60566,2.3902 -0.49633,0.2351 -0.84898,0.69224 -0.9404,1.24081 -0.0914,0.53551 0.0784,1.08407 0.4702,1.47591 l 15.21625,15.22931 c 1.12326,1.12326 1.73713,2.61224 1.73713,4.19264 0,1.5804 -0.62693,3.06937 -1.73713,4.19263 -2.23346,2.24652 -6.15181,2.24652 -8.38527,0 l -15.21625,-15.21625 c -0.39183,-0.39184 -0.95346,-0.56163 -1.47591,-0.47021 -0.53551,0.0914 -1.00571,0.44408 -1.24081,0.94041 -4.46692,9.36485 -2.54693,20.58439 4.78038,27.9117 4.63672,4.63671 10.78852,7.18364 17.33217,7.18364 z"
         id="path10"
         style="fill:#ffffff;fill-opacity:1"
         inkscape:connector-curvature="0" /><path
         d="m 538.66988,514.07993 c -2.57305,0 -5.10691,0.4049 -7.54935,1.18857 l -15.99992,-16.01299 -15.85625,15.85625 16.01298,16.01299 c -2.78203,8.71179 -0.49632,18.36399 5.99507,24.85539 4.62365,4.62365 10.78852,7.17058 17.3191,7.17058 3.65713,0 7.31425,-0.83592 10.60567,-2.3902 0.49632,-0.2351 0.84897,-0.69224 0.9404,-1.24081 0.0914,-0.54857 -0.0784,-1.08407 -0.4702,-1.47591 l -15.22932,-15.24237 c -1.12326,-1.12326 -1.73713,-2.61224 -1.73713,-4.19264 0,-1.5804 0.61387,-3.06937 1.75019,-4.19263 2.24652,-2.24652 6.13875,-2.24652 8.38527,0 l 15.22931,15.21625 c 0.39184,0.39184 0.92735,0.56163 1.47592,0.47021 0.5355,-0.0914 1.00571,-0.44408 1.24081,-0.94041 4.46691,-9.36485 2.55998,-20.59745 -4.78039,-27.92476 -4.63671,-4.61059 -10.78852,-7.15752 -17.33216,-7.15752 z"
         id="path12"
         style="fill:#ffffff;fill-opacity:1"
         inkscape:connector-curvature="0" /><path
         d="m 532.15236,477.99194 c 0,0 2.65142,2.32489 4.83263,1.24081 2.46856,-1.24081 9.4171,5.6163 11.63749,7.22283 0.0131,0 0.0261,0 0.0522,0.0131 l -1.21469,1.21468 c -1.60652,1.58041 -1.60652,4.16652 0,5.75998 1.59346,1.59346 4.16651,1.59346 5.75997,0 l 9.59996,-9.5869 c 1.5804,-1.59346 1.59346,-4.17957 0,-5.77303 -1.5804,-1.5804 -4.16651,-1.5804 -5.75997,0 l -1.59347,1.59346 c -1.31917,-1.82856 -3.52651,-4.93712 -3.25223,-5.96895 1.17551,-4.5061 -8.03261,-15.17707 -8.03261,-15.17707 -22.84397,-22.83091 -38.09941,-22.32152 -45.36141,-19.81378 -2.91264,1.00571 -2.37713,1.63265 0.65305,2.16815 22.02112,3.83999 24.75091,16.83584 21.02847,21.83827 -1.43672,1.93305 0.65306,4.271 0.65306,4.271 l 0.78367,0.78366 -37.18512,37.18513 c 0.50938,0.30041 0.99264,0.65306 1.42366,1.08408 l 6.2563,6.25629 c 0.43102,0.43102 0.77061,0.91429 1.07101,1.41061 l 37.18513,-37.18513 1.46285,1.46285 z"
         id="path14"
         style="fill:#ffffff;fill-opacity:1"
         inkscape:connector-curvature="0" /><path
         d="m 483.66933,508.542 c -1.37142,-1.37142 -3.70937,-1.46285 -5.17222,-0.18286 l -41.32552,37.05452 c -1.47591,1.26693 -1.55427,3.43508 -0.18285,4.80651 l 11.25872,11.24566 c 1.37142,1.37142 3.53957,1.29305 4.80651,-0.1698 l 37.06757,-41.33858 c 1.26694,-1.46285 1.18857,-3.80079 -0.18285,-5.17222 l -6.26936,-6.24323 z"
         id="path16"
         style="fill:#ffffff;fill-opacity:1"
         inkscape:connector-curvature="0" /></g></g></svg>