<?xml version="1.0" encoding="UTF-8" standalone="no"?>
<!-- Created with Inkscape (http://www.inkscape.org/) -->

<svg
   xmlns:dc="http://purl.org/dc/elements/1.1/"
   xmlns:cc="http://creativecommons.org/ns#"
   xmlns:rdf="http://www.w3.org/1999/02/22-rdf-syntax-ns#"
   xmlns:svg="http://www.w3.org/2000/svg"
   xmlns="http://www.w3.org/2000/svg"
   xmlns:sodipodi="http://sodipodi.sourceforge.net/DTD/sodipodi-0.dtd"
   xmlns:inkscape="http://www.inkscape.org/namespaces/inkscape"
   width="200mm"
   height="200mm"
   viewBox="0 0 708.66142 708.66141"
   id="svg4136"
   version="1.1"
   inkscape:version="0.91 r13725"
   sodipodi:docname="zoomToSelected.svg">
  <defs
     id="defs4138" />
  <sodipodi:namedview
     id="base"
     pagecolor="#ffffff"
     bordercolor="#666666"
     borderopacity="1.0"
     inkscape:pageopacity="0.0"
     inkscape:pageshadow="2"
     inkscape:zoom="0.35"
     inkscape:cx="-63.571429"
     inkscape:cy="-394.14014"
     inkscape:document-units="px"
     inkscape:current-layer="layer1"
     showgrid="false"
     showguides="true"
     inkscape:window-width="1920"
     inkscape:window-height="1167"
     inkscape:window-x="1920"
     inkscape:window-y="0"
     inkscape:window-maximized="1" />
  <metadata
     id="metadata4141">
    <rdf:RDF>
      <cc:Work
         rdf:about="">
        <dc:format>image/svg+xml</dc:format>
        <dc:type
           rdf:resource="http://purl.org/dc/dcmitype/StillImage" />
        <dc:title></dc:title>
      </cc:Work>
    </rdf:RDF>
  </metadata>
  <g
     inkscape:label="Layer 1"
     inkscape:groupmode="layer"
     id="layer1"
     transform="translate(0,-343.70079)">
    <path
       style="fill:#ffffff;fill-opacity:1;fill-rule:evenodd;stroke:#ffffff;stroke-width:1.44799995;stroke-miterlimit:4;stroke-dasharray:none;stroke-opacity:1"
       d="M 358.90039 -0.0078125 C 357.37925 -0.014866658 355.85579 -0.012338984 354.33008 0 C 159.40709 1.5768551 1.3276673 161.30328 0.73242188 356.08789 C 0.73210708 356.09258 0.72460938 356.09687 0.72460938 356.10156 C 0.72460938 356.10626 0.73210708 356.11054 0.73242188 356.11523 C 0.73135391 356.47359 0.72461045 356.83086 0.72460938 357.18945 C 0.72432596 552.46512 159.02398 709.48918 354.30273 707.92578 C 354.31188 707.9266 354.32093 707.9375 354.33008 707.9375 C 354.33985 707.9375 354.34961 707.92671 354.35938 707.92578 C 548.07124 706.34403 705.39452 549.29713 707.90625 356.16406 C 707.91241 356.14331 707.9375 356.12235 707.9375 356.10156 C 707.9375 356.08207 707.91362 356.06243 707.9082 356.04297 C 707.92748 354.52107 707.9375 352.99703 707.9375 351.4707 C 707.93671 157.71159 552.08542 0.88806556 358.90039 -0.0078125 z M 349.89453 35.482422 C 348.82553 53.304641 347.87776 77.561456 347.07812 106.46875 C 215.11531 111.28314 108.58102 217.78548 106.35352 350.10547 C 77.36439 350.76938 53.272058 351.55915 35.449219 352.44727 C 36.737529 198.41963 195.8068 38.508761 349.89453 35.482422 z M 358.76367 35.482422 C 512.85204 38.507477 671.92456 198.41898 673.21289 352.44727 C 655.38967 351.55911 631.29709 350.76941 602.30664 350.10547 C 600.07967 217.73948 493.54357 109.17096 361.57812 106.35742 C 360.77913 77.49945 359.83129 53.281836 358.76367 35.482422 z M 346.21484 141.93945 C 345.6543 168.98572 345.21429 198.9682 344.91992 231.11914 A 123.26111 124.26183 45.001521 0 0 230.81641 348.32031 C 198.7251 348.56408 168.80439 348.92735 141.80664 349.39062 C 144.77834 244.68334 241.65426 146.80325 346.21484 141.93945 z M 362.44336 141.93945 C 467.00478 146.80213 563.88371 244.6827 566.85547 349.39062 C 539.85603 348.92731 509.93544 348.56409 477.8418 348.32031 A 123.26111 124.26183 45.001521 0 0 363.73633 230.88477 C 363.44197 198.82077 363.00256 168.92115 362.44336 141.93945 z M 363.92969 255.89648 A 98.914072 98.9141 0 0 1 453.02539 348.16211 C 430.32636 348.03763 406.80338 347.9668 382.56641 347.9668 L 364.16406 347.9668 L 364.16406 326.16016 C 364.16406 301.99453 364.07927 278.5343 363.92969 255.89648 z M 344.72852 255.98047 C 344.57929 278.59214 344.49609 302.02484 344.49609 326.16016 L 344.49609 347.9668 L 326.09375 347.9668 C 301.88981 347.9668 278.3951 348.03601 255.72461 348.16016 A 98.914072 98.9141 0 0 1 344.72852 255.98047 z M 35.505859 359.75781 C 53.339354 360.64576 77.440678 361.43777 106.43359 362.10156 C 110.48305 492.85485 216.29572 599.51267 347.08008 602.30273 C 347.87909 631.16094 348.8269 655.38009 349.89453 673.17969 C 196.98865 670.17652 39.176694 512.68426 35.505859 359.75781 z M 673.15625 359.75781 C 669.48535 512.68489 511.67018 670.17772 358.76367 673.17969 C 359.83266 655.35728 360.78241 631.09893 361.58203 602.19141 C 492.36514 597.4208 598.17585 492.77478 602.22656 362.10156 C 631.2208 361.43775 655.32237 360.6458 673.15625 359.75781 z M 141.95508 362.81445 C 168.96305 363.27751 198.9 363.64134 230.99805 363.88477 A 123.26111 124.26183 45.001521 0 0 344.92188 477.77734 C 345.21624 509.84148 345.65563 539.74083 346.21484 566.72266 C 242.83554 561.91373 146.98022 466.17587 141.95508 362.81445 z M 566.70703 362.81445 C 561.68177 466.17651 465.8235 561.91484 362.44336 566.72266 C 363.0039 539.67626 363.44391 509.69404 363.73828 477.54297 A 123.26111 124.26183 45.001521 0 0 477.56445 363.88477 C 509.70034 363.64133 539.671 363.27801 566.70703 362.81445 z M 452.75781 364.04492 A 98.914072 98.9141 0 0 1 363.92969 452.67969 C 364.07892 430.06743 364.16406 406.63593 364.16406 382.5 L 364.16406 364.23828 L 382.56641 364.23828 C 406.70685 364.23828 430.14203 364.16849 452.75781 364.04492 z M 255.99414 364.04688 C 278.58075 364.17011 301.98705 364.23828 326.09375 364.23828 L 344.49609 364.23828 L 344.49609 382.5 C 344.49609 406.66622 344.58087 430.12528 344.73047 452.76367 A 98.914072 98.9141 0 0 1 255.99414 364.04688 z "
       transform="translate(0,343.70079)"
       id="path4686" />
    <circle
       style="fill:#ff0000;fill-opacity:1;fill-rule:evenodd;stroke:none;stroke-width:0.92081249;stroke-miterlimit:4;stroke-dasharray:none;stroke-opacity:1"
       id="path4802"
       cx="354.33072"
       cy="698.03149"
       r="35.433071" />
  </g>
</svg>
