<?xml version="1.0" encoding="UTF-8" standalone="no"?>
<!-- Created with Inkscape (http://www.inkscape.org/) -->
<svg
   xmlns:dc="http://purl.org/dc/elements/1.1/"
   xmlns:cc="http://creativecommons.org/ns#"
   xmlns:rdf="http://www.w3.org/1999/02/22-rdf-syntax-ns#"
   xmlns:svg="http://www.w3.org/2000/svg"
   xmlns="http://www.w3.org/2000/svg"
   xmlns:sodipodi="http://sodipodi.sourceforge.net/DTD/sodipodi-0.dtd"
   xmlns:inkscape="http://www.inkscape.org/namespaces/inkscape"
   width="64px"
   height="64px"
   id="svg2428"
   sodipodi:version="0.32"
   inkscape:version="0.46"
   sodipodi:docname="culvert.svg"
   inkscape:output_extension="org.inkscape.output.svg.inkscape">
  <defs
     id="defs2430">
    <inkscape:perspective
       sodipodi:type="inkscape:persp3d"
       inkscape:vp_x="0 : 32 : 1"
       inkscape:vp_y="0 : 1000 : 0"
       inkscape:vp_z="64 : 32 : 1"
       inkscape:persp3d-origin="32 : 21.333333 : 1"
       id="perspective2436" />
  </defs>
  <sodipodi:namedview
     id="base"
     pagecolor="#ffffff"
     bordercolor="#666666"
     borderopacity="1.0"
     inkscape:pageopacity="0.0"
     inkscape:pageshadow="2"
     inkscape:zoom="5.5"
     inkscape:cx="9.0909091"
     inkscape:cy="32"
     inkscape:current-layer="layer1"
     showgrid="true"
     inkscape:document-units="px"
     inkscape:grid-bbox="true"
     inkscape:window-width="1920"
     inkscape:window-height="1147"
     inkscape:window-x="-4"
     inkscape:window-y="-4" />
  <metadata
     id="metadata2433">
    <rdf:RDF>
      <cc:Work
         rdf:about="">
        <dc:format>image/svg+xml</dc:format>
        <dc:type
           rdf:resource="http://purl.org/dc/dcmitype/StillImage" />
      </cc:Work>
    </rdf:RDF>
  </metadata>
  <g
     id="layer1"
     inkscape:label="Layer 1"
     inkscape:groupmode="layer">
    <g
       id="g2418"
       transform="matrix(0.7885534,0,0,0.7885534,-138.67801,-16.46395)">
      <path
         style="fill:#d0d0d0;fill-opacity:1"
         d="M 177.76925,93.25 C 178.81725,91.7375 187.68802,76.55 197.48209,59.5 C 207.27615,42.45 215.78684,27.966336 216.39474,27.314079 C 217.21978,26.428833 222.4802,34.985687 237.14293,61.064079 L 256.78586,96 L 216.32484,96 L 175.86381,96 L 177.76925,93.25 z"
         id="path2400" />
      <path
         style="fill:#b9b9b9;fill-opacity:1"
         d="M 177.16667,95.177942 C 178.35001,92.259614 216.57791,27 217.10407,27 C 217.46355,27 225.53952,40.8375 235.05066,57.75 C 244.5618,74.6625 253.39697,90.1875 254.68437,92.25 L 257.02509,96 L 216.92921,96 C 194.87648,96 176.98333,95.630074 177.16667,95.177942 z"
         id="path2398" />
      <path
         style="fill:#a3a3a3;fill-opacity:1"
         d="M 177.16667,95.177942 C 178.35001,92.259614 216.57791,27 217.10407,27 C 217.46355,27 225.53952,40.8375 235.05066,57.75 C 244.5618,74.6625 253.39697,90.1875 254.68437,92.25 L 257.02509,96 L 216.92921,96 C 194.87648,96 176.98333,95.630074 177.16667,95.177942 z"
         id="path2396" />
      <path
         style="fill:#0000ff;fill-opacity:1"
         d="M 180.19209,90.156398 C 194.53537,64.818208 216.60607,27.033229 217.07187,27.018313 C 217.54827,27.003057 254.8082,92.482986 255.83333,95.137012 C 256.01683,95.612088 238.34799,96 216.52542,96 L 176.88418,96 L 180.19209,90.156398 z"
         id="path2394" />
      <path
         style="fill:#767676;fill-opacity:1"
         d="M 180.19209,90.156398 C 194.53537,64.818208 216.60607,27.033229 217.07187,27.018313 C 217.54827,27.003057 254.8082,92.482986 255.83333,95.137012 C 256.01683,95.612088 238.34799,96 216.52542,96 L 176.88418,96 L 180.19209,90.156398 z M 248.52808,89.25 C 232.18549,59.87809 217.39117,34.000905 216.94122,34.000501 C 216.6339,34.000226 209.23604,46.4875 200.50153,61.75 C 191.76703,77.0125 183.97923,90.5125 183.1953,91.75 L 181.76998,94 L 216.47048,94 L 251.17099,94 L 248.52808,89.25 z"
         id="path2392" />
      <path
         style="fill:#606060;fill-opacity:1"
         d="M 178.80069,92.75 C 179.88078,90.9625 188.52191,76 198.00319,59.5 C 207.48447,43 215.75162,28.951912 216.37463,28.282027 C 217.42749,27.149945 227.62955,44.399994 251.80878,88.195553 L 256.11757,96 L 216.47722,96 L 176.83688,96 L 178.80069,92.75 z M 250.83333,93.059651 C 250.06019,90.878588 217.45395,33.069301 216.97826,33.03625 C 216.51066,33.003761 182.97606,90.844465 182.16667,93.079532 C 181.96773,93.628865 195.81103,94 216.5,94 C 237.71472,94 251.03732,93.63511 250.83333,93.059651 z"
         id="path2390" />
      <path
         style="fill:#494949;fill-opacity:1"
         d="M 178.36713,93.75 C 179.14441,92.5125 186.63544,79.575 195.01387,65 C 203.3923,50.425 211.81042,35.894191 213.72081,32.709313 L 217.19424,26.918626 L 233.68492,56.209313 C 242.7548,72.319191 251.51912,87.8625 253.1612,90.75 L 256.14678,96 L 216.55034,96 L 176.95389,96 L 178.36713,93.75 z M 251,93.339136 C 251,92.22279 217.53955,33.016531 216.90383,33.008 C 216.28019,32.999631 182,92.289392 182,93.376382 C 182,93.719372 197.525,94 216.5,94 C 235.475,94 251,93.702611 251,93.339136 z"
         id="path2388" />
      <path
         style="fill:#000000;fill-opacity:1"
         d="M 178.36713,93.75 C 179.14441,92.5125 186.63544,79.575 195.01387,65 C 203.3923,50.425 211.81042,35.894191 213.72081,32.709313 L 217.19424,26.918626 L 233.68492,56.209313 C 242.7548,72.319191 251.51912,87.8625 253.1612,90.75 L 256.14678,96 L 216.55034,96 L 176.95389,96 L 178.36713,93.75 z M 249.60966,89.75 C 248.24861,87.4125 240.55598,73.8 232.51493,59.5 C 224.47389,45.2 217.58101,33.206928 217.19743,32.848729 C 216.81384,32.49053 208.53707,46.10303 198.80459,63.098729 L 181.10918,94 L 216.59674,94 L 252.08431,94 L 249.60966,89.75 z"
         id="path2386" />
    </g>
  </g>
</svg>
