<?xml version="1.0" encoding="UTF-8" standalone="no"?>
<!-- Created with Inkscape (http://www.inkscape.org/) -->

<svg
   xmlns:dc="http://purl.org/dc/elements/1.1/"
   xmlns:cc="http://creativecommons.org/ns#"
   xmlns:rdf="http://www.w3.org/1999/02/22-rdf-syntax-ns#"
   xmlns:svg="http://www.w3.org/2000/svg"
   xmlns="http://www.w3.org/2000/svg"
   xmlns:sodipodi="http://sodipodi.sourceforge.net/DTD/sodipodi-0.dtd"
   xmlns:inkscape="http://www.inkscape.org/namespaces/inkscape"
   width="16px"
   height="16px"
   id="svg2995"
   version="1.1"
   inkscape:version="0.91 r13725"
   sodipodi:docname="plus.svg">
  <defs
     id="defs2997" />
  <sodipodi:namedview
     id="base"
     pagecolor="#ffffff"
     bordercolor="#666666"
     borderopacity="1.0"
     inkscape:pageopacity="0.0"
     inkscape:pageshadow="2"
     inkscape:zoom="11.313708"
     inkscape:cx="-17.592566"
     inkscape:cy="1.777249"
     inkscape:current-layer="layer1"
     showgrid="true"
     inkscape:grid-bbox="true"
     inkscape:document-units="px"
     showguides="true"
     inkscape:guide-bbox="true"
     inkscape:snap-bbox="true"
     inkscape:snap-global="false"
     inkscape:window-width="1452"
     inkscape:window-height="947"
     inkscape:window-x="232"
     inkscape:window-y="113"
     inkscape:window-maximized="0" />
  <metadata
     id="metadata3000">
    <rdf:RDF>
      <cc:Work
         rdf:about="">
        <dc:format>image/svg+xml</dc:format>
        <dc:type
           rdf:resource="http://purl.org/dc/dcmitype/StillImage" />
        <dc:title></dc:title>
      </cc:Work>
    </rdf:RDF>
  </metadata>
  <g
     id="layer1"
     inkscape:label="Layer 1"
     inkscape:groupmode="layer">
    <path
       sodipodi:type="inkscape:offset"
       inkscape:radius="0.49108911"
       inkscape:original="M 7 1 L 7 7 L 1 7 L 1 9 L 7 9 L 7 15 L 9 15 L 9 9 L 15 9 L 15 7 L 9 7 L 9 1 L 7 1 z "
       style="fill:#000000;fill-opacity:1;stroke:none;stroke-width:1.08899999;stroke-miterlimit:4;stroke-dasharray:none;stroke-opacity:1"
       id="path8100"
       d="M 7,0.50976562 A 0.49113821,0.49113821 0 0 0 6.5097656,1 l 0,5.5097656 -5.5097656,0 A 0.49113821,0.49113821 0 0 0 0.50976562,7 l 0,2 A 0.49113821,0.49113821 0 0 0 1,9.4902344 l 5.5097656,0 0,5.5097656 A 0.49113821,0.49113821 0 0 0 7,15.490234 l 2,0 A 0.49113821,0.49113821 0 0 0 9.4902344,15 l 0,-5.5097656 5.5097656,0 A 0.49113821,0.49113821 0 0 0 15.490234,9 l 0,-2 A 0.49113821,0.49113821 0 0 0 15,6.5097656 l -5.5097656,0 0,-5.5097656 A 0.49113821,0.49113821 0 0 0 9,0.50976562 l -2,0 z" />
    <path
       style="fill:#006400;fill-opacity:1;stroke:none;stroke-width:1.08899999;stroke-miterlimit:4;stroke-dasharray:none;stroke-opacity:1"
       d="M 7 1 L 7 7 L 1 7 L 1 9 L 7 9 L 7 15 L 9 15 L 9 9 L 15 9 L 15 7 L 9 7 L 9 1 L 7 1 z "
       id="rect3061" />
  </g>
</svg>
